<svg xmlns="http://www.w3.org/2000/svg" xml:space="preserve" viewBox="0 0 1400 1400">
  <g id="bottom-bun" transform="rotate(12.5 677.26076324 699.7157911)">
    <linearGradient id="b" x1="895.6693" x2="575.9421" y1="1105.0034" y2="785.2763" gradientUnits="userSpaceOnUse">
      <stop offset="0" stop-color="#de7240"/>
      <stop offset="1" stop-color="#ffca7f"/>
    </linearGradient>
    <path fill="url(#b)" fill-rule="evenodd" d="M694.3 788.7c165.1-40 309.8-27.5 332.1 64.9 11.1 46.1 10.6 103.3-34 154-45 51.1-134.4 95.7-217.2 115.8-63 15.3-151.6 25.6-205.6 13.2-87.5-20-127.2-80.9-141-138.1-22.4-92.4 100.6-169.7 265.7-209.8z" clip-rule="evenodd"/>
    <linearGradient id="c" x1="931.4503" x2="612.8954" y1="1069.2273" y2="750.6724" gradientUnits="userSpaceOnUse">
      <stop offset="0" stop-color="#d96d3b"/>
      <stop offset="1" stop-color="#e69a63"/>
    </linearGradient>
    <path fill="url(#c)" fill-rule="evenodd" d="M694.3 788.7c165.1-40 309.8-27.5 332.1 64.9 11.1 46.1 10.6 103.3-34 154-32.7 37.1-88.7 70.8-148.7 94.1 21.8-24.7 28.6-55.5 20.3-92.6-256.8 44.6-396.5 10.2-379.6-130 48.5-38.2 123.4-69.4 209.9-90.4z" clip-rule="evenodd"/>
    <linearGradient id="d" x1="865.9548" x2="582.6925" y1="1061.7882" y2="778.5259" gradientUnits="userSpaceOnUse">
      <stop offset="0" stop-color="#f0a665"/>
      <stop offset="1" stop-color="#fff5cc"/>
    </linearGradient>
    <path fill="url(#d)" fill-rule="evenodd" d="M694.3 788.7c165.1-40 309.8-27.5 332.1 64.9 20.1 83.1-136 156.6-264.4 187.7-132 32-312.3 44.6-333.5-42.9-22.3-92.3 100.7-169.6 265.8-209.7z" clip-rule="evenodd"/>
    <linearGradient id="e" x1="894.9832" x2="612.8948" y1="1032.7612" y2="750.6729" gradientUnits="userSpaceOnUse">
      <stop offset="0" stop-color="#d9814e"/>
      <stop offset="1" stop-color="#ebca9b"/>
    </linearGradient>
    <path fill="url(#e)" fill-rule="evenodd" d="M694.3 788.7c165.1-40 309.8-27.5 332.1 64.9 14.9 61.6-66.9 117.9-162.5 155.6-256.8 44.5-396.5 10.1-379.6-130.1 48.6-38.2 123.5-69.4 210-90.4z" clip-rule="evenodd"/>
  </g>
  <g id="lettuce" transform="rotate(10 132.15026151 852.2539227)">
    <linearGradient id="f" x1="849.5936" x2="540.0812" y1="974.9482" y2="665.4357" gradientUnits="userSpaceOnUse">
      <stop offset="0" stop-color="#46c972"/>
      <stop offset="1" stop-color="#d7ff96"/>
    </linearGradient>
    <path fill="url(#f)" fill-rule="evenodd" d="M390.9 885.9c8.4 22.9 52.1 3 68.9 11.6 21.8 11.1 24.6 30.9 47.1 40.6 23.2 9.9 51-9.6 75.6-3.9 23.9 5.6 39.6 34.4 64 36.3 23.2 1.8 41.8-22.5 64.8-26.2 32.2-5.2 66.8 9.9 98 0 34.1-10.8 57.5-43.3 89.5-59.5 11.1-5.6 26.7 2.3 37-4.6 10.9-7.4 10.3-25.3 20.1-34 9.6-8.6 23.5-10.6 35.5-15.4 21.6-8.7-1.5-26.6 11.5-58.7 17.3-42.5-90.7-17.8-133.1-35.3-14.4-6-17.7-29.4-32.8-33.4-29.6-7.7-61.4 4.2-91.8.8-20.3-2.3-38.5-20.7-58.7-17.8-35.2 5.2-64.4 31.3-98.8 40.9-19.8 5.5-43.6-6.1-61.7 3.9-15.4 8.4-17.1 28-37.2 40.5-16 9.9-52.1-4.2-64.6 9.7-7.3 8.2-5.9 28.8-14.2 53.9-4.7 14.3-25.9 32-19.1 50.6z" clip-rule="evenodd"/>
    <linearGradient id="g" x1="885.9922" x2="592.2048" y1="938.5495" y2="644.762" gradientUnits="userSpaceOnUse">
      <stop offset="0" stop-color="#2d9669"/>
      <stop offset="1" stop-color="#76de49"/>
    </linearGradient>
    <path fill="url(#g)" fill-rule="evenodd" d="M963.1 841.1c8.7-4.7 19.1-6.8 28.3-10.5 21.6-8.7-1.5-26.6 11.5-58.7 1.4-3.3 2-6.2 1.9-8.8-8.5-.1-16.7-.8-23.9-4.1-5.1-2.3-7.7-7.8-10.1-13.5-31.4-2.8-76.8.9-100.9-9.1-14.4-6-17.7-29.4-32.8-33.4-29.6-7.7-61.4 4.2-91.8.8-20.3-2.3-38.5-20.7-58.7-17.8-35.2 5.2-64.4 31.3-98.8 40.9-19.8 5.5-43.6-6.1-61.7 3.9-15.4 8.4-17.1 28-37.2 40.5-6.6 4.1-16.7 4.1-27.2 3.7-2.8 7.8-5.5 15.6-8.3 22.9-1.9 5 9.6 4.8 13.8 8.1 3.5 2.7 4.9 8.1 8.9 9.8 6.6 2.6 14.7-.5 21.1 2.4 4.6 2.1 5.2 9.4 9.7 11.7 4.6 2.4 10.4.4 15.5 1.3 6.1 1.1 14.6-.4 17.8 4.9 2.6 4.3-8.9 9.4-6.5 13.8 4.2 7.7 13.4 12.7 21.9 14.6 9.3 2.1 18.9-4.3 28.4-3.3 7.6.9 14.7 4.7 21.1 8.9 8.2 5.4 12.2 18.8 21.9 19.5 23.1 1.6 45-12.3 68.2-13 4.1-.1 2.4 9.9 6.5 10.5 9.3 1.3 18.2-6.3 27.6-5.7 4.2.3 5.3 7.7 9.4 8.2 10.6 1.3 21.6-.7 31.9-3.4 6-1.5 10.1-8.1 16.2-8.9 15-2.2 30.4 2.1 45.5 0 10.7-1.5 21.1-5.6 30.8-10.6 8.1-4.1 13.6-12.6 21.9-16.2 8-3.6 17.1-5.1 26-4.9 3.7.1 6 6 9.7 5.7 8.3-.6 15.4-6.5 23.5-8.1 6.3-.8 12.6-1.6 18.9-2.1z" clip-rule="evenodd"/>
    <linearGradient id="h" x1="854.3329" x2="600.2493" y1="970.2088" y2="716.1252" gradientUnits="userSpaceOnUse">
      <stop offset="0" stop-color="#3eb37b"/>
      <stop offset="1" stop-color="#acf570"/>
    </linearGradient>
    <path fill="url(#h)" fill-rule="evenodd" d="M419.1 897.3c14.9-.8 31.7-4.4 40.7.2 21.8 11.1 24.6 30.9 47.1 40.6 23.2 9.9 51-9.6 75.6-3.9 23.9 5.6 39.6 34.4 64 36.3 23.2 1.8 41.8-22.5 64.8-26.2 32.2-5.2 66.8 9.9 98 0 34.1-10.8 57.5-43.3 89.5-59.5 11.1-5.6 26.7 2.3 37-4.6 10.9-7.4 10.3-25.3 20.1-34 9.6-8.6 23.5-10.6 35.5-15.4 21.6-8.7-1.5-26.6 11.5-58.7 17.3-42.5-90.7-17.8-133.1-35.3-14.4-6-17.7-29.4-32.8-33.4-29.6-7.7-61.4 4.2-91.8.8 25.7 12.5 43.9 26.3 32.6 41.2-12.6 16.5-51.8 14.1-53.5 31.7-1 10.3 17.3 14.4 17 26-.4 16.7-60.9 16.7-69 31.7-4.4 8.1 2.4 28.8-3.7 35.7-12.2 14-44.2 4.6-68.6 10.6-13.8 3.4-23.8 18.8-38.1 21.9-24.4 5.2-59.2-19.5-90.3-20.7-17.4-1-35.4 11.1-52.5 15z" clip-rule="evenodd"/>
    <linearGradient id="i" x1="905.9973" x2="718.3726" y1="918.5445" y2="730.9199" gradientUnits="userSpaceOnUse">
      <stop offset="0" stop-color="#287978"/>
      <stop offset="1" stop-color="#2aca3d"/>
    </linearGradient>
    <path fill="url(#i)" fill-rule="evenodd" d="M963.1 841.1c8.7-4.7 19.1-6.8 28.3-10.5 21.6-8.7-1.5-26.6 11.5-58.7 1.4-3.3 2-6.2 1.9-8.8-8.5-.1-16.7-.8-23.9-4.1-5.1-2.3-7.7-7.8-10.1-13.5-31.4-2.8-76.8.9-100.9-9.1-14.4-6-17.7-29.4-32.8-33.4-29.6-7.7-61.4 4.2-91.8.8 25.7 12.5 43.9 26.3 32.6 41.2-12.6 16.5-51.8 14.1-53.5 31.7-1 10.3 17.3 14.4 17 26-.4 16.7-60.9 16.7-69 31.7-4.4 8.1 2.4 28.8-3.7 35.7-10.1 11.6-33.8 7.1-55.5 8.7 4 5.3 7.8 10.6 13.9 11.1 23.1 1.6 45-12.3 68.2-13 4.1-.1 2.4 9.9 6.5 10.5 9.3 1.3 18.2-6.3 27.6-5.7 4.2.3 5.3 7.7 9.4 8.2 10.6 1.3 21.6-.7 31.9-3.4 6-1.5 10.1-8.1 16.2-8.9 15-2.2 30.4 2.1 45.5 0 10.7-1.5 21.1-5.6 30.8-10.6 8.1-4.1 13.6-12.6 21.9-16.2 8-3.6 17.1-5.1 26-4.9 3.7.1 6 6 9.7 5.7 8.3-.6 15.4-6.5 23.5-8.1 6.2-1.1 12.5-1.9 18.8-2.4z" clip-rule="evenodd"/>
  </g>
  <g id="tomato" transform="rotate(7.5 -853.56573052 1588.20516883)">
    <linearGradient id="j" x1="518.066" x2="340.3425" y1="851.0809" y2="673.3572" gradientUnits="userSpaceOnUse">
      <stop offset="0" stop-color="#ff4a40"/>
      <stop offset="1" stop-color="#f2a041"/>
    </linearGradient>
    <path fill="url(#j)" fill-rule="evenodd" d="m261.9 751.8-3.6 32.9c27.4 101 324.7 47.4 342.3-23.6l-10.8-41.6c-45.2-49.9-268.4-28.8-327.9 32.3z" clip-rule="evenodd"/>
    <linearGradient id="k" x1="501.4582" x2="348.657" y1="817.844" y2="665.0427" gradientUnits="userSpaceOnUse">
      <stop offset="0" stop-color="#ff6b4a"/>
      <stop offset="1" stop-color="#f2bb4b"/>
    </linearGradient>
    <path fill="url(#k)" fill-rule="evenodd" d="M261.9 751.8c22.5 112.1 327.9 27.5 327.9-32.4-45.2-49.8-268.4-28.7-327.9 32.4z" clip-rule="evenodd"/>
    <linearGradient id="l" x1="489.8822" x2="360.4769" y1="807.3362" y2="677.9309" gradientUnits="userSpaceOnUse">
      <stop offset="0" stop-color="#ffa686"/>
      <stop offset="1" stop-color="#fff3b2"/>
    </linearGradient>
    <path fill="url(#l)" fill-rule="evenodd" d="M287 751.4c19 94.9 277.7 23.3 277.7-27.4-38.3-42.2-227.3-24.4-277.7 27.4z" clip-rule="evenodd"/>
    <linearGradient id="m" x1="465.0323" x2="384.6943" y1="785.8817" y2="705.5438" gradientUnits="userSpaceOnUse">
      <stop offset="0" stop-color="#ff6b4a"/>
      <stop offset="1" stop-color="#f2bb4b"/>
    </linearGradient>
    <path fill="url(#m)" fill-rule="evenodd" d="M339.7 750.6c1.1 5.4-1.5 15.1 11.8 15.2 8.9 0 34.4-9.6 37.5-7.8 5.4 3.2-22.5 18.2-15.2 19.6 25.1 4.7 59.5-.4 87.6-9.6 4.4-1.4-14.7-10.9-10.6-12.6 4.1-1.6 31.4 4.6 35 2.8 15.8-7.8 26.3-16.7 26.3-24.7-4.9-5.4-13.8-9.2-25-11.6-4-.8-30.8 10.6-35.2 10.1-4.3-.5 13.8-12.9 9.2-13-19.8-.7-42.3 1.4-63 5.8-2.3.5 18 8 15.8 8.5-2.4.6-27.3-5.7-29.6-5.1-19.2 5.5-35.6 13.1-44.6 22.4z" clip-rule="evenodd"/>
    <linearGradient id="n" x1="398.6185" x2="392.7585" y1="741.4092" y2="735.5493" gradientUnits="userSpaceOnUse">
      <stop offset="0" stop-color="#ffa686"/>
      <stop offset="1" stop-color="#fff3b2"/>
    </linearGradient>
    <path fill="url(#n)" fill-rule="evenodd" d="M389.4 738.9c.9 4.3 12.6 1.1 12.6-1.2-1.7-2-10.3-1.2-12.6 1.2z" clip-rule="evenodd"/>
    <linearGradient id="o" x1="383.5483" x2="373.6673" y1="755.3283" y2="745.4473" gradientUnits="userSpaceOnUse">
      <stop offset="0" stop-color="#ffa686"/>
      <stop offset="1" stop-color="#fff3b2"/>
    </linearGradient>
    <path fill="url(#o)" fill-rule="evenodd" d="M368.1 751.1c1.4 7.3 21.2 1.8 21.2-2.1-2.9-3.3-17.4-1.9-21.2 2.1z" clip-rule="evenodd"/>
    <linearGradient id="p" x1="404.3976" x2="399.3938" y1="768.1675" y2="763.1638" gradientUnits="userSpaceOnUse">
      <stop offset="0" stop-color="#ffa686"/>
      <stop offset="1" stop-color="#fff3b2"/>
    </linearGradient>
    <path fill="url(#p)" fill-rule="evenodd" d="M392.9 771.7c5.1 5.4 19-9.7 16.9-13-4.1-1.2-15.7 7.6-16.9 13z" clip-rule="evenodd"/>
    <linearGradient id="q" x1="430.4306" x2="423.5972" y1="766.6481" y2="759.8146" gradientUnits="userSpaceOnUse">
      <stop offset="0" stop-color="#ffa686"/>
      <stop offset="1" stop-color="#fff3b2"/>
    </linearGradient>
    <path fill="url(#q)" fill-rule="evenodd" d="M426 769.3c8.1-2.1 6.2-12 2-11.7-4.1-1.1-9.6 8.7-2 11.7z" clip-rule="evenodd"/>
    <linearGradient id="r" x1="461.8535" x2="456.0065" y1="746.3246" y2="740.4776" gradientUnits="userSpaceOnUse">
      <stop offset="0" stop-color="#ffa686"/>
      <stop offset="1" stop-color="#fff3b2"/>
    </linearGradient>
    <path fill="url(#r)" fill-rule="evenodd" d="M452.7 743.8c.9 4.3 12.6 1.1 12.6-1.3-1.8-1.8-10.3-1-12.6 1.3z" clip-rule="evenodd"/>
    <linearGradient id="s" x1="442.1365" x2="438.4601" y1="732.9171" y2="729.2408" gradientUnits="userSpaceOnUse">
      <stop offset="0" stop-color="#ffa686"/>
      <stop offset="1" stop-color="#fff3b2"/>
    </linearGradient>
    <path fill="url(#s)" fill-rule="evenodd" d="M437.6 735.9c5.5-1.4 8.7-9.2 5.9-9-2.9-.9-11.1 6.9-5.9 9z" clip-rule="evenodd"/>
  </g>
  <g id="onions" transform="translate(0 100)">
    <linearGradient id="t" x1="745.9599" x2="594.9628" y1="909.4426" y2="758.4455" gradientUnits="userSpaceOnUse">
      <stop offset="0" stop-color="#9737ff"/>
      <stop offset="1" stop-color="#e38fff"/>
    </linearGradient>
    <path fill="url(#t)" fill-rule="evenodd" d="m503.2 852.4 2.2 33c44.6 94.6 327.9-10.2 332.8-83.3L820.4 763c-53.2-41.1-269.2 18.8-317.2 89.4zm37.3 13.3c52.2 46 209.8-22.5 247.9-71.7-55.6-19.5-199.2 21-247.9 71.7z" clip-rule="evenodd"/>
    <linearGradient id="u" x1="744.6755" x2="594.1077" y1="909.9208" y2="759.353" gradientUnits="userSpaceOnUse">
      <stop offset="0" stop-color="#a93cff"/>
      <stop offset="1" stop-color="#ec91ff"/>
    </linearGradient>
    <path fill="url(#u)" fill-rule="evenodd" d="M526.9 908.9c7.3 4.6 15.9 7.9 25.4 10.2l-7.5-50c-1.5-1.1-3-2.2-4.4-3.4 1.1-1.2 2.2-2.3 3.4-3.4l-6.3-42.4c-9.3 6.5-17.5 13.2-24.1 20.2l13.5 68.8zm53.9 14c5.8.2 11.8.2 17.8 0l-7.4-42c-6.4 0-12.6-.4-18.4-1.3l8 43.3zm54.6-4c4.2-.7 8.3-1.5 12.5-2.3l-11.2-41.4c-4.3 1-8.6 1.9-12.8 2.6l11.5 41.1zm56.8-14c18.8-6 37.1-13.2 54.2-21.2l-15.8-45.4c-16.7 9.3-35.3 17.9-54.4 24.9l16 41.7zm74-31.1c4.1-2.2 8.2-4.5 12-6.8l-18.4-47c-3 2.1-6.1 4.2-9.3 6.3l15.7 47.5zm36-22.9c2.5-1.9 5-3.8 7.3-5.8l-38.4-95.4c-6.3-.2-13-.2-19.9.1l20.3 40.2c6.2.8 11.9 2.1 16.9 3.8-2.7 3.4-5.9 7-9.6 10.5l23.4 46.6zm28.8-29.2c1.9-2.8 3.4-5.6 4.5-8.4l-27.9-57.2c-4.5-1.7-9.6-3.1-15.1-4.1l38.5 69.7zm-98.2-70.4c-2.2.2-4.5.5-6.8.8l12.3 37.3c3.2-.2 6.3-.3 9.3-.4l-14.8-37.7zm-31 4.7c-20 3.7-40.7 9-61 15.6l13.2 34.3c20.3-6.2 40.9-11 60.3-13.8L701.8 756zm-90.3 25.9c-4.4 1.7-8.7 3.4-12.9 5.3l9.9 35.4c4.1-1.8 8.3-3.6 12.6-5.3l-9.6-35.4zm-35 15.3c-5.9 2.9-11.6 5.9-17.1 9l7.1 38.6c5.2-3.4 10.8-6.7 16.6-9.8l-6.6-37.8z" clip-rule="evenodd"/>
    <linearGradient id="v" x1="725.8808" x2="602.0821" y1="875.1249" y2="751.3262" gradientUnits="userSpaceOnUse">
      <stop offset="0" stop-color="#ff99f7"/>
      <stop offset="1" stop-color="#fff"/>
    </linearGradient>
    <path fill="url(#v)" fill-rule="evenodd" d="M503.2 852.4C545 958.8 830.9 822 820.4 763c-53.2-41.1-269.2 18.8-317.2 89.4zm24.7-4.8c35.3 90.1 277.4-25.7 268.6-75.7-45-34.8-228 15.9-268.6 75.7z" clip-rule="evenodd"/>
    <linearGradient id="w" x1="973.5365" x2="749.3547" y1="882.8875" y2="658.7057" gradientUnits="userSpaceOnUse">
      <stop offset="0" stop-color="#9737ff"/>
      <stop offset="1" stop-color="#e38fff"/>
    </linearGradient>
    <path fill="url(#w)" fill-rule="evenodd" d="m712.3 695.8-16 29c-13.5 103.8 281.5 168.7 325 109.8l6-42.5c-22.5-63.4-236.6-129.8-315-96.3zm24.1 31.3c19.1 66.9 188.6 94.5 247.3 73.7-36.2-46.5-178.9-90-247.3-73.7z" clip-rule="evenodd"/>
    <linearGradient id="x" x1="973.3346" x2="755.7877" y1="882.5882" y2="665.0413" gradientUnits="userSpaceOnUse">
      <stop offset="0" stop-color="#a93cff"/>
      <stop offset="1" stop-color="#ec91ff"/>
    </linearGradient>
    <path fill="url(#x)" fill-rule="evenodd" d="M700.1 752.7c3.1 7.6 7.8 14.8 13.8 21.8l23.8-43.6c-.5-1.3-.9-2.5-1.3-3.8 1.2-.3 2.5-.6 3.8-.8l21.5-39.4c-11.2.3-21.7 1.4-31.1 3.3l-30.5 62.5zm35.3 41.4c4.6 3.4 9.5 6.7 14.6 9.9l19.3-37.7c-5.3-3.5-10.2-7.3-14.5-11.2l-19.4 39zm49 27.7c3.8 1.6 7.6 3.3 11.5 4.8l16-39.7c-4.1-1.5-8.1-3-12-4.7l-15.5 39.6zm56.7 19.8c18.9 5.2 38.2 9.1 56.8 11.7l14.9-46.3c-19.1-1.1-39.4-3.9-59.4-8.3l-12.3 42.9zm79 14.2c4.9.4 9.8.7 14.6.9l13.9-49.6c-3.9.3-7.9.4-12 .5l-16.5 48.2zm44.4.4c3-.2 6-.5 8.9-.9l26.1-96.3c-4.7-3.6-9.8-7.2-15.4-10.6l-8 44.2c2.9 2.7 5.4 5.5 7.6 8.3-2.9 1-6.2 2-9.6 2.7l-9.6 52.6zm41.4-9.6c3.3-1.6 6.2-3.4 8.8-5.4l10.5-54c-2.2-4.3-5.2-8.7-9-13l-10.3 72.4zm-38.3-107.8c-2.1-1.2-4.3-2.3-6.5-3.4l-12.6 37c2.9 1.7 5.7 3.4 8.3 5.1l10.8-38.7zm-28.5-13.6c-18.3-7.8-38.3-14.8-58.7-20.7l-10.1 35.3c20.2 6 39.8 13.3 57.1 21.5l11.7-36.1zm-90.6-28.7c-4.6-1-9.1-2-13.7-2.8l-13.6 34.6c4.4.8 8.9 1.6 13.4 2.6l13.9-34.4zm-40-6.9c-6.8-.8-13.4-1.5-19.9-2l-18 36c6.4 0 13.2.3 20.1.8l17.8-34.8z" clip-rule="evenodd"/>
    <linearGradient id="y" x1="966.3342" x2="759.6029" y1="855.1889" y2="648.4575" gradientUnits="userSpaceOnUse">
      <stop offset="0" stop-color="#ff99f7"/>
      <stop offset="1" stop-color="#fff"/>
    </linearGradient>
    <path fill="url(#y)" fill-rule="evenodd" d="M712.3 695.8c-22.3 112.1 292.1 151.6 315.1 96.3-22.6-63.4-236.7-129.8-315.1-96.3zm23.3 9.3c-18.9 95 247.4 128.3 266.9 81.5C983.3 733 802 676.7 735.6 705.1z" clip-rule="evenodd"/>
  </g>
  <g id="pattie" transform="rotate(-5 3124.2677629 710.09413871)">
    <linearGradient id="z" x1="852.8188" x2="499.5243" y1="805.1588" y2="451.8643" gradientUnits="userSpaceOnUse">
      <stop offset="0" stop-color="#573021"/>
      <stop offset="1" stop-color="#824f2a"/>
    </linearGradient>
    <path fill="url(#z)" fill-rule="evenodd" d="M396.6 566.8c-4.2 8.7-10 16.6-13.3 25.7-2.7 7.6-1.4 16.4-4.4 24-2.8 6.9-12.4 11.1-12.4 18.6 0 11.2 3.1 25 12.4 31.1 20.3 13.2 46.8 12.7 69.1 22.2 12.2 5.1 20.7 18.5 33.7 21.3 11.7 2.6 23.5-6.8 35.5-6.2 9.4.5 17.3 8.3 26.6 9.4 22 2.5 44.5-2.2 66.5 1.3 17 2.7 31.6 15.4 48.7 16.8 11.9 1 22.6-8.6 34.5-9.7 16.2-1.6 32.6-.3 48.7 1.8 19.1 2.4 37.4 11.6 56.7 11.6 7.8 0 12.7-10.3 20.4-11.6 23.7-3.9 47.8-2.7 71.8-3.5 11.8-.4 24.7 5 35.5 0 8.2-3.8 7.1-17.4 14.2-23 11.9-9.4 32.4-7.7 40.8-20.4 6.4-9.7-4.6-22.9-4.4-34.6.1-5.3 6.3-9.9 5.3-15.1-1.6-7.8-9.7-12.9-12.4-20.4-2.4-6.7 3.6-17.9-2.7-21.3-26.1-14.3-55.8-21.4-85.1-26.6-31.5-5.5-64-1.4-95.7-5.3-7.1-.9-12.5-7.7-19.5-8.9-11.7-1.9-24 3-35.5 0-13.2-3.4-22.9-16.3-36.3-18.6-20.4-3.5-41.4-.1-62 1.8-15.5 1.4-30.5 7.1-46.1 8-11.9.6-23.6-4.4-35.5-3.5-18 1.3-35.2 8.9-53.2 9.7-15.2.7-30-6.1-45.2-5.3-16 .8-33 2.1-47 9.8-6.7 3.4-6.2 13.9-9.7 20.9z" clip-rule="evenodd"/>
    <linearGradient id="A" x1="907.6034" x2="592.4449" y1="750.3741" y2="435.2157" gradientUnits="userSpaceOnUse">
      <stop offset="0" stop-color="#4c2a1d"/>
      <stop offset="1" stop-color="#633a1d"/>
    </linearGradient>
    <path fill="url(#A)" fill-rule="evenodd" d="M704.6 720.5c12.6-.3 25.2.9 37.7 2.4 19.1 2.4 37.4 11.6 56.7 11.6 7.8 0 12.7-10.3 20.4-11.6 23.7-3.9 47.8-2.7 71.8-3.5 11.8-.4 24.7 5 35.5 0 8.2-3.8 7.1-17.4 14.2-23 11.9-9.4 32.4-7.7 40.8-20.4 6.4-9.7-4.6-22.9-4.4-34.6.1-5.3 6.3-9.9 5.3-15.1-1.6-7.8-9.7-12.9-12.4-20.4-2.4-6.7 3.6-17.9-2.7-21.3-26.1-14.3-55.8-21.4-85.1-26.6-31.5-5.5-64-1.4-95.7-5.3-7.1-.9-12.5-7.7-19.5-8.9-11.7-1.9-24 3-35.5 0-13.2-3.4-22.9-16.3-36.3-18.6-20.4-3.5-41.4-.1-62 1.8-15.5 1.4-30.5 7.1-46.1 8-11.9.6-23.6-4.4-35.5-3.5-18 1.3-35.2 8.9-53.2 9.7-3.7.2-7.3-.1-11-.6-3.1 2-4.8 4.7-4.1 8.7 2.8 16.2 31.7 9.5 46.3 17.1 4.2 2.2 4 10 8.5 11.4 14.1 4.2 29.7.6 43.8 4.4 11 3 19 15 30.4 15.9 19.9 1.4 39.3-7.4 59.2-9.4 14.1-1.4 28.6-3.2 42.6-.8 9.2 1.5 16.1 10 25.2 12.2 15.1 3.6 36.9-7.5 46.2 4.9 7.8 10.3-12.4 23.1-15.4 35.7-2.7 11.1 7.5 27.3-1.5 34.4-17.6 13.8-51.2 0-64.6 17.9-5.4 6.9-4.2 17.9.4 27.5z" clip-rule="evenodd"/>
    <linearGradient id="B" x1="848.6255" x2="536.6654" y1="727.2296" y2="415.2695" gradientUnits="userSpaceOnUse">
      <stop offset="0" stop-color="#5e3c24"/>
      <stop offset="1" stop-color="#9c673a"/>
    </linearGradient>
    <path fill="url(#B)" fill-rule="evenodd" d="M970 605.8c-2.4-6.7 3.6-17.9-2.7-21.3-26.1-14.3-55.8-21.4-85.1-26.6-31.5-5.5-64-1.4-95.7-5.3-7.1-.9-12.5-7.7-19.5-8.9-11.7-1.9-24 3-35.5 0-13.2-3.4-22.9-16.3-36.3-18.6-20.4-3.5-41.4-.1-62 1.8-15.5 1.4-30.5 7.1-46.1 8-11.9.6-23.6-4.4-35.5-3.5-18 1.3-35.2 8.9-53.2 9.7-15.2.7-30-6.1-45.2-5.3-16 .8-33 2.1-47 9.8 2.8 8.1 15.7 7.5 21.8 13.5 5.5 5.3 5.1 16.6 12.2 19.5 19.1 7.6 41.1 4 60.9 9.8 11.5 3.3 19.8 15.3 31.6 17.1 13.8 2 27.5-7.8 41.4-6.5 18.5 1.8 35 15.1 53.5 15.4 14 .2 25.7-13.5 39.8-13.8 13.3-.3 25 10.3 38.1 12.2 13.1 1.9 26.6-2.2 39.8-.8 20.5 2.2 40.2 11.2 60.9 11.4 11.4.1 21.3-8.2 32.5-10.6 9.6-2 19.5-3.5 29.2-2.4 15.2 1.6 29.3 11.2 44.6 10.5 19.9-1 38.8-8.8 57.5-15.1z" clip-rule="evenodd"/>
    <linearGradient id="C" x1="866.5422" x2="592.4449" y1="709.313" y2="435.2157" gradientUnits="userSpaceOnUse">
      <stop offset="0" stop-color="#573021"/>
      <stop offset="1" stop-color="#824f2a"/>
    </linearGradient>
    <path fill="url(#C)" fill-rule="evenodd" d="M970 605.8c-2.4-6.7 3.6-17.9-2.7-21.3-26.1-14.3-55.8-21.4-85.1-26.6-31.5-5.5-64-1.4-95.7-5.3-7.1-.9-12.5-7.7-19.5-8.9-11.7-1.9-24 3-35.5 0-13.2-3.4-22.9-16.3-36.3-18.6-20.4-3.5-41.4-.1-62 1.8-15.5 1.4-30.5 7.1-46.1 8-11.9.6-23.6-4.4-35.5-3.5-18 1.3-35.2 8.9-53.2 9.7-3.7.2-7.3-.1-11-.6-3.1 2-4.8 4.7-4.1 8.7 2.8 16.2 31.7 9.5 46.3 17.1 4.2 2.2 4 10 8.5 11.4 14.1 4.2 29.7.6 43.8 4.4 11 3 19 15 30.4 15.9 19.9 1.4 39.3-7.4 59.2-9.4 14.1-1.4 28.6-3.2 42.6-.8 9.2 1.5 16.1 10 25.2 12.2 15.1 3.6 36.9-7.5 46.2 4.9 3.6 4.7 1.4 9.8-2.4 15.2 7.6 1.8 15.2 3.1 23 3.2 11.4.1 21.3-8.2 32.5-10.6 9.6-2 19.5-3.5 29.2-2.4 15.2 1.6 29.3 11.2 44.6 10.5 20-.9 38.9-8.7 57.6-15z" clip-rule="evenodd"/>
  </g>
  <g id="top-bun" transform="rotate(-25 1365.98026369 776.07085037)">
    <linearGradient id="D" x1="1036.0918" x2="619.8417" y1="576.3765" y2="160.1264" gradientUnits="userSpaceOnUse">
      <stop offset="0" stop-color="#de7240"/>
      <stop offset="1" stop-color="#ffca7f"/>
    </linearGradient>
    <path fill="url(#D)" fill-rule="evenodd" d="M752 493.9c154.4 71 301.6 88.7 315.9 47.8 41.6-119.4 16.2-248.6-157.2-344.5-170.4-94.3-333.1-34.9-401.7 87.5-27 48 88.7 138.3 243 209.2z" clip-rule="evenodd"/>
    <linearGradient id="E" x1="986.0721" x2="576.7474" y1="625.4078" y2="216.0831" gradientUnits="userSpaceOnUse">
      <stop offset="0" stop-color="#f0a665"/>
      <stop offset="1" stop-color="#fff5cc"/>
    </linearGradient>
    <path fill="url(#E)" fill-rule="evenodd" d="M752 493.9c154.4 71 297.7 86.8 315.9 47.8 16.9-36.3-115.8-74.7-235.7-129.8C708.8 355.2 536.3 238.3 509 284.8c-28 47.5 88.7 138.2 243 209.1z" clip-rule="evenodd"/>
    <linearGradient id="F" x1="1048.1013" x2="722.2481" y1="564.367" y2="238.5138" gradientUnits="userSpaceOnUse">
      <stop offset="0" stop-color="#d96d3b"/>
      <stop offset="1" stop-color="#e69a63"/>
    </linearGradient>
    <path fill="url(#F)" fill-rule="evenodd" d="M752 493.9c154.4 71 301.6 88.7 315.9 47.8 41.6-119.4 16.2-248.6-157.2-344.5-20.3-11.2-40.4-20.2-60.3-27.2 128.1 80.5 85.9 213 36.4 265.9C777.5 420 641 304.9 611.5 350c-18.8 28.7 35.1 66.2 86.8 117.7 17.3 8.9 35.2 17.7 53.7 26.2z" clip-rule="evenodd"/>
    <linearGradient id="G" x1="998.1434" x2="672.7844" y1="613.3365" y2="287.9775" gradientUnits="userSpaceOnUse">
      <stop offset="0" stop-color="#d9814e"/>
      <stop offset="1" stop-color="#ebca9b"/>
    </linearGradient>
    <path fill="url(#G)" fill-rule="evenodd" d="M752 493.9c154.4 71 297.7 86.8 315.9 47.8 14.3-30.8-79.1-63.1-181.1-105.9-109.3-15.9-245.8-131-275.3-85.9-18.8 28.7 35.1 66.2 86.8 117.7 17.3 9 35.3 17.9 53.7 26.3z" clip-rule="evenodd"/>
    <linearGradient id="H" x1="838.9369" x2="823.8328" y1="192.188" y2="177.0839" gradientUnits="userSpaceOnUse">
      <stop offset="0" stop-color="#f0a665"/>
      <stop offset="1" stop-color="#fff5cc"/>
    </linearGradient>
    <path fill="url(#H)" fill-rule="evenodd" d="M828.4 188.9c5.7 2.6 13.3 1.3 13.9-.1.6-1.3-3.2-5.6-7.6-7.7-4.5-2.1-12-3.5-13-1.8s1 7 6.7 9.6z" clip-rule="evenodd"/>
    <linearGradient id="I" x1="964.5031" x2="952.3118" y1="264.0402" y2="251.8489" gradientUnits="userSpaceOnUse">
      <stop offset="0" stop-color="#f0a665"/>
      <stop offset="1" stop-color="#fff5cc"/>
    </linearGradient>
    <path fill="url(#I)" fill-rule="evenodd" d="M954.8 259.4c2.9 3.8 8.5 5.6 9.5 4.8.9-.7-.2-4.9-2.4-7.9-2.3-3-6.9-6.7-8.2-5.8-1.4.9-1.8 5.1 1.1 8.9z" clip-rule="evenodd"/>
    <linearGradient id="J" x1="922.029" x2="907.916" y1="222.9508" y2="208.8377" gradientUnits="userSpaceOnUse">
      <stop offset="0" stop-color="#f0a665"/>
      <stop offset="1" stop-color="#fff5cc"/>
    </linearGradient>
    <path fill="url(#J)" fill-rule="evenodd" d="M912.1 219.8c5.3 2.5 12.3 1.4 13 0 .6-1.2-2.9-5.3-7-7.2-4.2-2-11.1-3.4-12.1-1.8-1 1.6.8 6.5 6.1 9z" clip-rule="evenodd"/>
    <linearGradient id="K" x1="872.1089" x2="857.887" y1="245.9141" y2="231.6921" gradientUnits="userSpaceOnUse">
      <stop offset="0" stop-color="#f0a665"/>
      <stop offset="1" stop-color="#fff5cc"/>
    </linearGradient>
    <path fill="url(#K)" fill-rule="evenodd" d="M862.1 242.7c5.3 2.5 12.4 1.4 13.1 0 .6-1.2-2.9-5.3-7.1-7.3-4.2-2-11.2-3.5-12.2-1.9-.9 1.8.9 6.7 6.2 9.2z" clip-rule="evenodd"/>
    <linearGradient id="L" x1="1027.7458" x2="1013.5396" y1="317.9172" y2="303.7109" gradientUnits="userSpaceOnUse">
      <stop offset="0" stop-color="#f0a665"/>
      <stop offset="1" stop-color="#fff5cc"/>
    </linearGradient>
    <path fill="url(#L)" fill-rule="evenodd" d="M1017.8 314.7c5.3 2.5 12.4 1.4 13.1 0 .6-1.2-2.9-5.3-7-7.3-4.2-2-11.2-3.4-12.2-1.8-1.1 1.7.8 6.6 6.1 9.1z" clip-rule="evenodd"/>
    <linearGradient id="M" x1="730.8667" x2="722.0869" y1="179.2594" y2="170.4797" gradientUnits="userSpaceOnUse">
      <stop offset="0" stop-color="#f0a665"/>
      <stop offset="1" stop-color="#fff5cc"/>
    </linearGradient>
    <path fill="url(#M)" fill-rule="evenodd" d="M726.6 180.3c5.7-1.4 10.5-6.8 10.1-8.3-.3-1.4-5.6-2.3-10.1-1.2-4.5 1.1-10.8 4.5-10.6 6.3.4 2 4.9 4.6 10.6 3.2z" clip-rule="evenodd"/>
  </g>
  <g id="cheese" transform="rotate(-15 1716.49160177 902.12848486)">
    <linearGradient id="N" x1="944.8088" x2="540.1027" y1="712.9193" y2="308.2131" gradientUnits="userSpaceOnUse">
      <stop offset="0" stop-color="#f0a665"/>
      <stop offset="1" stop-color="#fff5cc"/>
    </linearGradient>
    <path fill="url(#N)" fill-rule="evenodd" d="M414.6 447.8c29.9 3.3 62.2-8 90.1 3.2 60.5 24.4 106.1 79.8 168 100.7 61.1 20.6 128.5 11.8 192.3 21.1 49.9 7.3 98.1 28.4 148.5 28.4 15.6 0 47.3-4.4 57.4-14.5 1.4-1.4 2.6-12.6 1-14-49.2-44.3-118.3-60.6-181-82-46.7-15.9-97.8-15.4-145.2-29.2-44.1-12.9-82.4-47.5-128.2-50.4-70.3-4.4-140 16.7-209.3 29.2-3.3.8 3.2 7.1 6.4 7.5z" clip-rule="evenodd"/>
    <linearGradient id="O" x1="939.0735" x2="541.0099" y1="705.7289" y2="307.6653" gradientUnits="userSpaceOnUse">
      <stop offset="0" stop-color="#ffdf7f"/>
      <stop offset="1" stop-color="#fffbdb"/>
    </linearGradient>
    <path fill="url(#O)" fill-rule="evenodd" d="M505.9 437.7c58.6 28.8 110.6 78.6 172.4 99.5 61.1 20.7 128.7 9.9 192.5 19.2 49.9 7.3 92.6 29.6 143 29.6 21.7 0 44.3-2.9 58-13-49.2-44.3-118.3-60.6-181-82-46.7-15.9-97.8-15.4-145.2-29.2-44.1-12.9-82.4-47.5-128.2-50.4-70.3-4.4-140 16.7-209.3 29.2 24.3 1.3 78.1-12.6 97.8-2.9z" clip-rule="evenodd"/>
  </g>
</svg>