<svg xmlns="http://www.w3.org/2000/svg" xml:space="preserve" viewBox="0 0 1400 1400">
   <g id="menu-table">
      <path fill="#897862" d="m228.5 1104.7 49.1 99.7h516.8l56.3-99.7z" />
      <path fill="#DFCAAA" d="M1192.1 1104.7H850.7l-56.3 99.7H1143z" />
      <path
         fill="#544736"
         d="M155.6 1067.6c-17.5 0-31.7 14.2-31.7 31.7v10.9c0 17.5 14.2 31.7 31.7 31.7H878l41.8-74.2H155.6z"
      />
      <path
         fill="#9A866E"
         d="M1244.4 1067.6H919.8l-41.8 74.2h366.4c17.5 0 31.7-14.2 31.7-31.7v-10.9c0-17.5-14.2-31.6-31.7-31.6z"
      />
   </g>
   <g id="menu-cup" transform="translate(75 0)">
      <path fill="#FFEDCA" d="M868.2 168.1h36.4v349.4h-36.4z" />
      <path
         fill="#CCBFA4"
         d="M904.6 168.1v349.4h-36.4v-19.2c12.2 0 22.2-67.3 22.2-150.4s-9.9-150.4-22.2-150.4v-29.4h36.4z"
      />
      <path fill="#D33E22" d="M1045.2 1068.1H727.6l-60.7-638.2h438.9z" />
      <path
         fill="#872207"
         d="m1105.8 429.9-60.7 638.2H727.6l-6.3-66.3c16.6 6.3 33.9 9.7 51.8 9.7 120.1 0 217.5-152.3 217.5-340.2 0-94.3-24.5-179.7-64.2-241.3h179.4z"
      />
      <g id="menu-cup-cap">
         <path
            fill="#2F2415"
            d="M1110.8 398.8H886l14.6 50.6h210.2c14 0 25.3-11.3 25.3-25.3s-11.3-25.3-25.3-25.3z"
         />
         <path fill="#473A2B" d="M886 398.8H785.9l9.6 50.6h105.1z" />
         <path
            fill="#2F2415"
            d="M661.9 398.8c-14 0-25.3 11.3-25.3 25.3s11.3 25.3 25.3 25.3h133.6l-9.6-50.6h-124z"
         />
         <path
            fill="#2F2415"
            d="M716.9 373.5c-14 0-25.3 11.3-25.3 25.3s11.3 25.3 25.3 25.3h73.8l-9.6-50.6h-64.2z"
         />
         <path fill="#473A2B" d="M878.7 373.5h-97.6l9.6 50.6h102.6z" />
         <path
            fill="#2F2415"
            d="M1055.9 373.5H878.7l14.6 50.6h162.5c14 0 25.3-11.3 25.3-25.3s-11.3-25.3-25.2-25.3z"
         />
      </g>
   </g>
   <g id="menu-burger">
      <g id="menu-ketchup">
         <path
            fill="#DB2423"
            d="M195.7 721.7c-3.5 0-6.3 2.8-6.3 6.3v7.4c0 3.5 2.8 6.3 6.3 6.3h124.6l19.9-19.9H195.7z"
         />
         <path
            fill="#B81C1B"
            d="M461.1 721.7H340.2l-19.9 19.9h140.9c3.5 0 6.3-2.8 6.3-6.3V728c-.1-3.5-2.9-6.3-6.4-6.3z"
         />
         <path fill="#F3A377" d="M646.6 721.7h-98.5l-12.5 19.9h98z" />
         <path
            fill="#DB2423"
            d="M468.5 721.7c-3.5 0-6.3 2.8-6.3 6.3v7.4c0 3.5 2.8 6.3 6.3 6.3h67.1l12.5-19.9h-79.6z"
         />
         <path
            fill="#B81C1B"
            d="M734 721.7h-87.4l-12.9 19.9H734c3.5 0 6.3-2.8 6.3-6.3V728c0-3.5-2.8-6.3-6.3-6.3z"
         />
      </g>
      <g id="menu-bottom-sauce">
         <path
            fill="#889C3C"
            d="M195.7 928.9c-3.5 0-6.3 2.8-6.3 6.3v7.4c0 3.5 2.8 6.3 6.3 6.3h124.6l19.9-19.9H195.7z"
         />
         <path
            fill="#5C6E26"
            d="M461.1 928.9H340.2l-19.9 19.9h140.9c3.5 0 6.3-2.8 6.3-6.3v-7.4c-.1-3.4-2.9-6.2-6.4-6.2z"
         />
         <path fill="#CCBF67" d="M626.2 928.9h-98.4l-12.5 19.9h98z" />
         <path
            fill="#889C3C"
            d="M448.2 928.9c-3.5 0-6.3 2.8-6.3 6.3v7.4c0 3.5 2.8 6.3 6.3 6.3h67.1l12.5-19.9h-79.6z"
         />
         <path
            fill="#5C6E26"
            d="M713.7 928.9h-87.4l-12.9 19.9h100.3c3.5 0 6.3-2.8 6.3-6.3v-7.4c-.1-3.4-2.9-6.2-6.3-6.2z"
         />
      </g>
      <g id="menu-top-bun">
         <path
            fill="#DC821A"
            d="M593.2 517.5H362.8c-112.8 0-204.2 91.4-204.2 204.2h638.8c0-112.8-91.4-204.2-204.2-204.2z"
         />
         <path
            fill="#F7941D"
            d="M797.4 721.7c0-56.4-22.9-107.4-59.8-144.4s-88-59.8-144.4-59.8H362.8c-112.8 0-204.2 91.4-204.2 204.2h638.8z"
         />
         <path
            fill="#D97723"
            d="M683.2 721.7c0-56.4-22.9-107.4-59.8-144.4s-88-59.8-144.4-59.8H362.8c-112.8 0-204.2 91.4-204.2 204.2h524.6z"
         />
         <path
            fill="#FDB913"
            d="M364.5 600.4h-32.9c-7.8 0-14.1-6.3-14.1-14.1s6.3-14.1 14.1-14.1h32.9c7.8 0 14.1 6.3 14.1 14.1s-6.3 14.1-14.1 14.1zm134 0h-32.9c-7.8 0-14.1-6.3-14.1-14.1s6.3-14.1 14.1-14.1h32.9c7.8 0 14.1 6.3 14.1 14.1s-6.3 14.1-14.1 14.1zm134 0h-32.9c-7.8 0-14.1-6.3-14.1-14.1s6.3-14.1 14.1-14.1h32.9c7.8 0 14.1 6.3 14.1 14.1s-6.3 14.1-14.1 14.1zm-52.6 64.2H547c-7.8 0-14.1-6.3-14.1-14.1s6.3-14.1 14.1-14.1h32.9c7.8 0 14.1 6.3 14.1 14.1s-6.4 14.1-14.1 14.1zm-145.4 0h-32.9c-7.8 0-14.1-6.3-14.1-14.1s6.3-14.1 14.1-14.1h32.9c7.8 0 14.1 6.3 14.1 14.1s-6.3 14.1-14.1 14.1z"
         />
      </g>
      <g id="menu-patties">
         <path
            fill="#852D00"
            d="M753 907.1H203.1c-8.2 0-14.9-6.7-14.9-14.9v-23.9c0-8.2 6.7-14.9 14.9-14.9H753c8.2 0 14.9 6.7 14.9 14.9v23.9c-.1 8.3-6.7 14.9-14.9 14.9z"
         />
         <path
            fill="#852D00"
            d="M767.8 870.3v19.9c0 9.3-5.9 16.9-13.1 16.9H201.3c-7.2 0-13.1-7.6-13.1-16.9v-19.9c0-9.3 5.9-16.9 13.1-16.9h553.5c7.2 0 13 7.6 13 16.9z"
         />
         <path
            fill="#661D00"
            d="M729 892.1v15H201.3c-7.2 0-13.1-7.6-13.1-16.9v-15h527.7c7.2 0 13.1 7.5 13.1 16.9z"
         />
         <path
            fill="#852D00"
            d="M707.6 882.4c-.6-.1-1.2.1-1.9.5-1 .8-1.7 2.2-1.7 3.8 0 1.5.6 3 1.7 3.8.6.5 1.2.6 1.9.5 2 .6 4.2-1.4 4.2-4.3s-2.2-4.9-4.2-4.3z"
         />
         <path
            fill="#889C3C"
            d="M738.2 818.6H229.7c-5.2 0-9.5 4.3-9.5 9.5v2.1h-8c-5.2 0-9.5 4.3-9.5 9.5v4.2c0 5.2 4.3 9.5 9.5 9.5h38c0 26.7 21.6 48.3 48.3 48.3 17 0 31.9-8.8 40.5-22 10.8-16.6 29.6-26.3 49.5-26.3h3.5c16.4 0 31.7 7.1 43.3 18.6 4.8 4.8 11.4 7.7 18.6 7.7 7.9 0 14.9-3.4 19.7-8.9 9.6-10.9 23.2-17.5 37.7-17.5h28c12.7 0 24.7 5.1 34.1 13.6 4.7 4.2 10.8 6.8 17.6 6.8 6.8 0 12.9-2.6 17.6-6.8 10.1-9.1 23.5-13.6 37-13.6h74.9c5.2 0 9.5-4.3 9.5-9.5v-2.1h8c5.2 0 9.5-4.3 9.5-9.5V828c.2-5.2-4.1-9.4-9.3-9.4z"
         />
         <path
            fill="#5C6E26"
            d="M571.4 847.5H239c-5.2 0-9.5-4.3-9.5-9.5v-4.2c0-5.2 4.3-9.5 9.5-9.5h332.5c5.2 0 9.5 4.3 9.5 9.5v4.2c-.1 5.2-4.3 9.5-9.6 9.5zm76.9 0h-38c-5.2 0-9.5-4.3-9.5-9.5v-4.2c0-5.2 4.3-9.5 9.5-9.5h38c5.2 0 9.5 4.3 9.5 9.5v4.2c0 5.2-4.3 9.5-9.5 9.5z"
         />
         <path
            fill="#FCB216"
            d="M729.4 928.9H220.9c-5.2 0-9.5-4.3-9.5-9.5v-4.2c0-5.2 4.3-9.5 9.5-9.5h508.5c5.2 0 9.5 4.3 9.5 9.5v4.2c0 5.2-4.2 9.5-9.5 9.5z"
         />
         <path
            fill="#FFD791"
            d="M738.9 917.3c0 3.2-.9 6.1-2.3 8.2-1.4 2.1-3.3 3.4-5.4 3.4.8-1.8 1.2-3.9 1.2-6.2 0-6.4-3.5-11.6-7.8-11.6h-512c.3-.7.7-1.4 1.1-2 1.4-2.1 3.3-3.4 5.5-3.4h512c4.2-.1 7.7 5.1 7.7 11.6z"
         />
         <path
            fill="#FCB216"
            d="M729.4 764.9H220.9c-5.2 0-9.5-4.3-9.5-9.5v-4.2c0-5.2 4.3-9.5 9.5-9.5h508.5c5.2 0 9.5 4.3 9.5 9.5v4.2c0 5.2-4.2 9.5-9.5 9.5z"
         />
         <path
            fill="#FFD791"
            d="M738.9 753.2c0 3.2-.9 6.1-2.3 8.2-1.4 2.1-3.3 3.4-5.4 3.4.8-1.8 1.2-3.9 1.2-6.2 0-6.4-3.5-11.6-7.8-11.6h-512c.3-.7.7-1.4 1.1-2 1.4-2.1 3.3-3.4 5.5-3.4h512c4.2 0 7.7 5.2 7.7 11.6z"
         />
         <g>
            <path
               fill="#852D00"
               d="M753 818.6H203.1c-8.2 0-14.9-6.7-14.9-14.9v-23.9c0-8.2 6.7-14.9 14.9-14.9H753c8.2 0 14.9 6.7 14.9 14.9v23.9c-.1 8.2-6.7 14.9-14.9 14.9z"
            />
            <path
               fill="#852D00"
               d="M767.8 781.8v19.9c0 9.3-5.9 16.9-13.1 16.9H201.3c-7.2 0-13.1-7.6-13.1-16.9v-19.9c0-9.3 5.9-16.9 13.1-16.9h553.5c7.2 0 13 7.5 13 16.9z"
            />
            <path
               fill="#661D00"
               d="M729 803.5v15H201.3c-7.2 0-13.1-7.6-13.1-16.9v-15h527.7c7.2 0 13.1 7.6 13.1 16.9z"
            />
            <path
               fill="#852D00"
               d="M707.6 793.8c-.6-.1-1.2.1-1.9.5-1 .8-1.7 2.2-1.7 3.8 0 1.5.6 3 1.7 3.8.6.5 1.2.6 1.9.5 2 .6 4.2-1.4 4.2-4.3 0-2.8-2.2-4.9-4.2-4.3z"
            />
         </g>
      </g>
      <g id="menu-bottom-bun">
         <path
            fill="#F7941D"
            d="M777.9 1003.6v9.2c0 30.3-23 54.8-51.5 54.8H229.6c-28.4 0-51.5-24.5-51.5-54.8v-9.2c0-30.3 23.1-54.8 51.5-54.8h496.8c28.5 0 51.5 24.6 51.5 54.8z"
         />
         <path
            fill="#C46C1E"
            d="M633.8 1003.6v9.2c0 30.3-23 54.8-51.5 54.8H229.6c-28.4 0-51.5-24.5-51.5-54.8v-9.2c0-30.3 23.1-54.8 51.5-54.8h352.7c28.4 0 51.5 24.6 51.5 54.8z"
         />
      </g>
   </g>
</svg>