<svg xmlns="http://www.w3.org/2000/svg" xml:space="preserve" viewBox="0 0 2829.333 2829.333" width="">
			<g id="bowl">
				<path
					fill="#fde4d1"
					d="M2451.293 1360.733c0 400.76-274.066 802.094-663.613 912.134-16.96 4.853-34.093 9.026-51.493 12.706-113.534 23.907-236.12 34.827-359.454 30.16-296.393-11.026-597.036-111.64-787.11-335.986-67.106-79.227-125.092-182.414-157.415-281.347-34.275-105.12-55.088-226.867-55.088-337.667 0-28.653 1.17-56.986 3.508-84.973 1.17-15.027 2.69-30 4.521-44.787a1009.315 1009.315 0 0 1 33.079-160.52c21.892-41.266 52.06-80.72 89.583-117.386 177.148-174.32 516.65-292.04 906.362-292.04 472.267 0 870.76 172.88 996.014 409.426 19.226 65.6 32 134.294 37.6 205.307 2.36 27.987 3.506 56.32 3.506 84.973"
				/>
				<path
					fill="#fbc7a5"
					d="M2401.16 1241.68c0 14.96-1.08 29.733-3.333 44.36-13 88.173-64.627 170.24-145.547 241.307-5.48 4.813-11.107 9.613-16.88 14.293-34.133 28.013-72.867 54.173-115.653 78.013-3.16 1.84-6.374 3.56-9.6 5.36-1.107.6-2.28 1.227-3.427 1.84-.373.214-.76.414-1.173.627a846.546 846.546 0 0 1-18.76 9.813c-32.88 16.827-67.84 32.347-104.72 46.56a531.633 531.633 0 0 1-10.64 4.054 1.19 1.19 0 0 1-.48.133c-4.2 1.587-8.32 3.173-12.56 4.667-7.987 2.973-16.08 5.773-24.254 8.52-34.346 11.746-70.106 22.253-107.08 31.586a1506.641 1506.641 0 0 1-38.706 9.28c-6.88 1.507-13.814 3.014-20.76 4.4a592.17 592.17 0 0 1-15.84 3.294c-2.547.48-5.08 1.026-7.627 1.506-11.253 2.2-22.667 4.254-34.12 6.187-3.8.747-7.64 1.36-11.413 1.987A1717.049 1717.049 0 0 1 1597.293 1773a1456.863 1456.863 0 0 1-33.853 3.093c-13.88 1.16-27.813 2.187-41.813 3.014-14.574.826-29.134 1.506-43.894 1.986a83.604 83.604 0 0 1-6.106.214c-19.014.613-38.12.96-57.414.96-62.64 0-123.893-3.24-183.281-9.414-14.083-1.373-27.959-2.946-41.756-4.8-10.783-1.306-21.501-2.746-32.064-4.4-21.568-3.16-42.784-6.733-63.741-10.64-10.226-1.933-20.463-3.986-30.558-6.053-4.053-.88-8.173-1.707-12.225-2.6-10.77-2.333-21.49-4.813-32.077-7.347-17.36-4.12-34.391-8.586-51.152-13.253a1141.018 1141.018 0 0 1-40.588-11.96 993.812 993.812 0 0 1-26.842-8.72c-6.588-2.12-13.121-4.387-19.645-6.72-20.89-7.36-41.263-15.12-61.115-23.427-23.23-9.546-45.602-19.773-67.105-30.413-10.148-5.027-20.035-10.173-29.79-15.387a847.239 847.239 0 0 1-11.758-6.453 784.063 784.063 0 0 1-17.23-9.827c-.818-.466-1.583-.96-2.338-1.44-2.807-1.653-5.481-3.293-8.224-4.946-3.585-2.054-7.145-4.254-10.653-6.454-44.291-27.666-83.5-57.813-116.878-90.093-7.42-7.08-14.5-14.36-21.282-21.707a468.72 468.72 0 0 1-19.307-21.973c-3.09-3.707-6.12-7.48-9.055-11.267-17.306-22.32-32.012-45.386-43.744-69.08-5.433-10.92-10.24-21.906-14.37-33.093-3.354-9-6.315-18.067-8.784-27.2a292.238 292.238 0 0 1-8.028-37.56c-2.274-14.627-3.378-29.4-3.378-44.36 0-13.253.908-26.44 2.623-39.427 5.08-38.453 17.501-75.746 36.523-111.586 47.461-89.614 136.041-169.547 253.881-233.347 54.385-29.533 114.968-55.493 180.619-77.467 27.192-9.066 55.268-17.44 84.19-25.133a1549.275 1549.275 0 0 1 37.911-9.48c75.745-17.933 156.44-30.827 240.63-37.907 49.083-4.12 99.365-6.24 150.591-6.24 66.547 0 131.587 3.627 194.414 10.494 82.066 8.933 160.413 23.48 233.76 42.92 42.24 11.133 82.746 23.84 121.333 37.986 24.387 8.987 47.947 18.534 70.6 28.627a1001.569 1001.569 0 0 1 70.947 34.613c56.093 30.08 105.626 63.867 147.306 100.614a606.64 606.64 0 0 1 33.787 32.066c31.24 32.267 56.773 66.48 75.747 102.254 25.466 48 39.053 98.613 39.053 151.013"
				/>
				<path
					fill="#f57654"
					d="M2307.36 1356.227c0 13.786-1 27.413-3.107 40.946-6.68 45.36-24.48 89.067-51.986 130.174-106.774 93.84-264.774 168.466-452.547 212.08-118.4 27.573-248.747 42.866-385.547 42.866-389.129 0-725.694-123.333-886.368-302.64-7.782-8.786-15.226-17.64-22.242-26.68a289.008 289.008 0 0 1-14.11-55.8c-2.08-13.533-3.093-27.16-3.093-40.946 0-48.307 12.615-94.934 36.105-139.12 109.876-207.4 459.238-359.054 873.335-359.054 267.653 0 508.293 63.334 674.653 164.187 81.894 49.547 145.814 108.213 186.187 172.88a409.617 409.617 0 0 1 12.707 21.987c23.466 44.186 36.013 90.813 36.013 139.12"
				/>
				<path
					fill="#f79857"
					d="M2307.36 1356.227c0 13.786-1 27.413-3.107 40.946-6.68 45.36-24.48 89.067-51.986 130.174-106.774 93.84-264.774 168.466-452.547 212.08-118.4 27.573-248.747 42.866-385.547 42.866-389.129 0-725.694-123.333-886.368-302.64a284.922 284.922 0 0 1-10.862-46.386c-2.104-13.52-3.104-27.16-3.104-40.947 0-48.293 12.628-94.907 36.117-139.133 109.863-207.374 459.225-359.04 873.337-359.04 267.654 0 508.294 63.346 674.654 164.2 66.36 40.106 120.92 86.32 160.693 136.773a409.617 409.617 0 0 1 12.707 21.987c23.466 44.186 36.013 90.813 36.013 139.12"
				/>
				<path
					fill="#f9aa73"
					d="M1911.333 1708.773a1233.915 1233.915 0 0 0 22.8-7.546 1007.349 1007.349 0 0 0 36.814-13.187c.133 0 .32-.053.48-.133 49.693-18.614 96.146-39.694 138.72-62.894a896.23 896.23 0 0 0 17.706-9.893c-63.613 36.467-136.48 68.067-216.52 93.653M2181.227 1581.933c19.16-12.946 37.226-26.4 54.173-40.293-2-74.72-54.8-158.227-.56-225.253 17.147-21.174 37.373-37.8 56.76-52.907 10.347 30.053 15.76 61.04 15.76 92.747 0 13.786-1 27.413-3.107 40.946-6.68 45.36-24.48 89.067-51.986 130.174-21.64 19.013-45.374 37.24-71.04 54.586"
				/>
				<path
					fill="#ebebea"
					d="M1432.28 2316.827c-252.676 0-513.628-63.92-711.18-213.174 183.097 138.32 420.693 203.347 655.633 212.08a1483.55 1483.55 0 0 0 56.014 1.067c104.28 0 207.12-10.947 303.44-31.227 17.4-3.68 34.533-7.853 51.493-12.706h.027c-16.974 4.853-34.107 9.026-51.48 12.706-96.494 20.32-199.534 31.254-303.947 31.254"
				/>
				<path
					fill="#ead3c1"
					d="M1432.747 2316.8c-18.64 0-37.307-.36-56.014-1.067-234.94-8.733-472.536-73.76-655.633-212.08-47.89-36.186-92.057-77.386-131.464-123.906-67.093-79.227-125.105-182.414-157.415-281.347-34.288-105.12-55.076-226.867-55.076-337.667 0-28.653 1.17-56.986 3.496-84.973 5.6-71.013 18.398-139.72 37.6-205.307 21.892-41.266 52.072-80.72 89.595-117.4a2022.322 2022.322 0 0 0 10.639 61.4c-20.699 24.467-38.163 49.92-52.084 76.214-19.022 35.84-31.443 73.133-36.523 111.586-1.715 12.987-2.623 26.174-2.623 39.427 0 14.96 1.104 29.733 3.378 44.36 1.845 12.64 4.52 25.2 8.028 37.56 2.469 9.133 5.43 18.2 8.784 27.2 4.13 11.187 8.937 22.173 14.37 33.093 11.732 23.694 26.438 46.76 43.744 69.08 2.691 3.48 5.459 6.934 8.283 10.347 4.516 5.48 9.18 10.92 13.973 16.333 60.184 67.16 145.055 126.48 248.115 174.387 190.824 277.28 503.065 521.173 1011.787 618.827h-.027c-16.96 4.853-34.093 9.026-51.493 12.706-96.32 20.28-199.16 31.227-303.44 31.227m-920.474-635.947c7.328 95.587 79.45 180.627 127.512 261.04 40.652 68.027 108.538 139.8 182.983 170.307 10.708 4.387 62.19 23.52 92.773 23.52 11.203 0 19.607-2.573 22.17-9.373 8.314-22.12-88.036-70.894-101.755-80.694-85.907-61.266-128.819-142.24-159.597-240.44-15.932-50.866-58.075-157.84-112.283-157.84-16.304 0-33.704 9.68-51.803 33.48-.197-2.573-.348-5.16-.449-7.76v8.36c.148-.2.301-.4.45-.6"
				/>
				<path
					fill="#e9ba9b"
					d="M427.245 1241.68c0-13.253.908-26.44 2.623-39.427 5.08-38.453 17.501-75.746 36.523-111.586 13.921-26.294 31.385-51.747 52.084-76.214 2.556 13.52 5.282 27.16 8.189 40.934-44.57 38.533-77.475 89.44-96.796 146.866-1.715 12.987-2.623 26.174-2.623 39.427"
				/>
				<path
					fill="#e47052"
					d="M527.805 1479.653a606.196 606.196 0 0 1-13.973-16.333l.772.92a468.08 468.08 0 0 0 13.153 15.267c.016.053.032.093.048.146"
				/>
				<path
					fill="#e68e55"
					d="M775.92 1654.04c-103.06-47.907-187.93-107.227-248.115-174.387-.016-.053-.032-.093-.048-.146a465.746 465.746 0 0 0 6.154 6.706c6.782 7.347 13.862 14.627 21.282 21.707 33.378 32.28 72.587 62.427 116.878 90.093 3.508 2.2 7.068 4.4 10.653 6.454 2.743 1.653 5.417 3.293 8.224 4.946.755.48 1.52.974 2.339 1.44a784.063 784.063 0 0 0 17.229 9.827c3.923 2.2 7.833 4.333 11.757 6.453a1011.306 1011.306 0 0 0 53.591 26.827c.021.04.035.053.056.08"
				/>
				<path
					fill="#f79857"
					d="M1729.587 1157.293c0 46.6-64.534 84.374-144.134 84.374-79.613 0-144.133-37.774-144.133-84.374 0-46.6 64.52-84.386 144.133-84.386 79.6 0 144.134 37.786 144.134 84.386M1225.268 1469.96c0 83.013-114.968 150.333-256.792 150.333-141.848 0-256.817-67.32-256.817-150.333 0-83 513.609-83 513.609 0"
				/>
				<path
					fill="#eedccc"
					d="M915.541 2135.72c-30.584 0-82.065-19.133-92.773-23.52-74.445-30.507-142.33-102.28-182.983-170.307-48.062-80.413-120.184-165.453-127.512-261.04 18.099-23.8 35.499-33.48 51.803-33.48 54.208 0 96.35 106.974 112.283 157.84 30.778 98.2 73.69 179.174 159.597 240.44 13.719 9.8 110.07 58.574 101.755 80.694-2.563 6.8-10.967 9.373-22.17 9.373m-403.717-454.267v-8.36c.101 2.6.252 5.187.45 7.76-.149.2-.302.4-.45.6"
				/>
			</g>
			<g id="lettuce-b">
				<path
					fill="#8cbd3f"
					d="M2347.547 1102.467c63.92 118.4-46.974 132.76-112.707 213.92-54.24 67.026-1.44 150.533.56 225.253-36.667 30.067-78.64 58.027-125.253 83.373-42.574 23.2-89.027 44.28-138.72 62.894a1.19 1.19 0 0 1-.48.133c-12.08 4.6-24.387 9-36.814 13.187-34.346 11.746-70.106 22.253-107.08 31.586A1499.556 1499.556 0 0 1 1710 1757.48c-3.8.747-7.64 1.36-11.413 1.987A1717.049 1717.049 0 0 1 1597.293 1773a1456.863 1456.863 0 0 1-33.853 3.093c-13.88 1.16-27.813 2.187-41.813 3.014-14.574.826-29.134 1.506-43.894 1.986a83.604 83.604 0 0 1-6.106.214c-10.014-6.254-20.547-12.227-31.947-17.507-91.733-42.52-208.837-6.32-306.825-37.227-115.904-36.6-155.674-125.6-144.475-227.653 7.808-71.693 18.528-136.04 15.383-208.413-3.235-73.134 26.777-130.76 35.638-200.734 1.091-8.586 1.17-16.693.339-24.306-5.147-53.574-51.775-85.427-88.31-126.574-8.653-9.746-16.746-20.04-23.62-31.24-45.058-73.693 23.282-96.08 57.271-152.933a126.35 126.35 0 0 0 4.663-8.44c30.975-61.533-27.4-133.24 17.45-190.787 37.222-47.72 110.498-48.88 168.718-38.8 78.083 13.6 58.373 52.12 96.143 103.987 67.665 92.84 200.732 83.64 298.932 36.253 11.186-5.426 21.906-11.813 32.413-18.613 79.187-51.92 141.933-133.64 247.147-66.267 56.466 36.187 55.973 90.027 65.946 139.254 6.094 30.44 16.267 59 46.267 80.56.347.213.627.48.96.626 24.8 17.64 48.133 26.16 70.6 28.627 70.48 7.693 131.987-44.773 200.253-66.053 84.534-26.44 171.054 58.16 127.534 128.066-20.88 33.507-68.4 51.16-75.067 92.027a56.862 56.862 0 0 0-.68 13.253c2.133 40.92 42.493 79.387 61.187 114.054"
				/>
				<path
					fill="#769e34"
					d="M2238.213 1155.227c57.414 106.16-42.093 119.066-101.013 191.853-49.507 61.12.213 137.493.547 205.28.133 32.053-10.374 55.067-27.6 72.653-42.574 23.2-89.027 44.28-138.72 62.894-.16.08-.347.146-.48.146-12.494 4.107-24.934 8.374-36.814 13.174-34.346 11.746-70.106 22.253-107.08 31.586-10.973 1.52-22.64 2.694-35.346 3.507-34.2 2.347-58.987 10.227-81.707 21.16-3.8.747-7.64 1.36-11.413 1.987A1717.049 1717.049 0 0 1 1597.293 1773c-11.186 1.173-22.533 2.187-33.853 3.093-13.88 1.16-27.813 2.187-41.813 3.014-14.574.826-29.134 1.506-43.894 1.986-16.28-11.4-33.586-23.346-53.84-32.68-82.266-38.12-187.256-5.64-275.161-33.386-103.979-32.814-139.693-112.694-129.664-204.16 7.08-64.347 16.695-122.094 13.81-186.987-2.897-65.653 24.023-117.227 32-180.067 4.133-32.546-7.626-56.653-25.138-78.346-22.581-28.027-54.868-52.067-74.992-85.027-9.952-16.267-13.745-29.733-13.319-41.547 1.235-38.586 47.034-59.8 68.886-103.213 14.488-28.693 7.198-59.813 2.677-90.44-4.327-28.227-6.328-55.893 12.98-80.693 33.364-42.787 99.09-43.814 151.345-34.734 61.948 10.707 55.283 39 76.306 77.52 2.728 5.08 6.041 10.307 9.937 15.72 60.653 83.24 180.067 75 268.107 32.494 10.093-4.814 19.706-10.574 29.12-16.694 12.973-8.506 25.48-17.92 37.84-27.266 55.066-41.614 106.706-81.507 183.826-32.134 31.8 20.4 43.48 47.107 49.934 75.054 3.853 16.493 5.893 33.453 9.2 49.866 5.493 27.267 14.626 52.88 41.546 72.24 80.214 57.614 143.8 9.414 212.134-20.88 10.44-4.6 20.933-8.786 31.653-12.146 74.933-23.414 151.64 50.466 115.653 112.76-.36.68-.84 1.44-1.24 2.12-18.746 30.08-61.4 45.88-67.36 82.546-6.746 41.134 35.694 79.8 54.24 114.214"
				/>
			</g>

			<g id="onion-d">
				<path
					fill="#993486"
					d="M1632.76 1090.987c-72.347 47.133-169.547 26.186-217.08-46.734-47.56-72.946-27.467-170.32 44.907-217.48 72.32-47.133 169.506-26.213 217.066 46.734 47.534 72.973 27.454 170.32-44.893 217.48zm-125.32 41.293c44.973 6.773 92.44-2.267 133.4-28.947 40.907-26.653 68.293-66.373 80.253-110.186 13.307-48.56 7.76-102.214-19.133-148.894-1.84-3.146-3.733-6.28-5.747-9.346-58.68-90.014-178.666-115.854-267.933-57.68-89.293 58.213-114.092 178.386-55.387 268.426 1.987 3.04 4 5.987 6.134 8.88 31.826 43.534 78.6 70.267 128.413 77.747"
				/>
				<path
					fill="#9a1477"
					d="M1415.68 1044.253c-47.56-72.946-27.467-170.32 44.907-217.48 72.32-47.133 169.506-26.213 217.066 46.734 47.534 72.973 27.454 170.32-44.893 217.48-72.347 47.133-169.547 26.186-217.08-46.734zm141.493 108.547c33.054-1.52 66.094-11.547 95.72-30.88 89.294-58.213 114.134-178.413 55.44-268.427a201.785 201.785 0 0 0-6.373-9.24c-8.88-12.04-18.933-22.853-29.867-32.28-63.76-55.013-158.146-64.066-231.706-16.133-86.107 56.133-112.259 169.92-61.36 258.693a183.791 183.791 0 0 0 5.946 9.707c39.2 60.12 105.76 91.627 172.2 88.56"
				/>
				<path
					fill="#bb7fb1"
					d="M1415.68 1044.253c-47.56-72.946-27.467-170.32 44.907-217.48 72.32-47.133 169.506-26.213 217.066 46.734 47.534 72.973 27.454 170.32-44.893 217.48-72.347 47.133-169.547 26.186-217.08-46.734zm91.76 88.027c45.413 10.667 94.787 3.587 136.733-23.787 41.934-27.346 68.374-69.546 76.92-115.346 8.294-43.64.24-90.6-26.066-131-53.867-82.6-163.947-106.307-245.907-52.907-81.933 53.4-104.68 163.707-50.84 246.347 26.28 40.306 65.933 66.546 109.16 76.693"
				/>
			</g>
			<g id="tomato-e">
				<path
					fill="#b52423"
					d="M1890.813 1459.68c-136.666 0-247.466-126.173-247.466-281.8s110.8-281.787 247.466-281.787c136.68 0 247.467 126.16 247.467 281.787 0 155.627-110.787 281.8-247.467 281.8"
				/>
				<path
					fill="#e82e20"
					d="M2166.493 1177.867c0 155.64-110.8 281.826-247.466 281.826-24.094 0-47.374-3.906-69.374-11.24-102.92-34.133-178.106-142.373-178.106-270.586 0-155.614 110.786-281.8 247.48-281.8 91.28 0 171.026 56.306 213.893 140.053 21.36 41.627 33.573 90.04 33.573 141.747"
				/>
				<path
					fill="#f46f72"
					d="M1919.027 1436.48c-125.44 0-227.12-115.773-227.12-258.6 0-142.827 101.68-258.6 227.12-258.6 125.426 0 227.12 115.773 227.12 258.6 0 142.827-101.707 258.6-227.12 258.6"
				/>
				<path
					fill="#ee504c"
					d="M1932.44 1406.187c-110.733 0-200.493-102.214-200.493-228.307 0-126.093 89.76-228.307 200.493-228.307 110.733 0 200.493 102.214 200.493 228.307 0 126.093-89.76 228.307-200.493 228.307"
				/>
				<path
					fill="#9f1f1e"
					d="M2087.987 1062.053c-2.414-3.36-5.067-6.546-8.014-9.52-22.8-22.986-62.666-30.213-91.28-12.493-34.52 21.36-29.92 53.667-16.52 86.733 10.4 25.654 25.08 52.28 21.48 80.854-4.52 35.72-44.986 59.826-48.2 96.186-3.106 35.28 35.614 49.574 64.854 48.787 42.12-1.16 67.32-32.973 77.773-70.427 18.747-67.106 44.707-157.413-.093-220.12"
				/>
				<path
					fill="#b52423"
					d="M2079.8 1062.053a76.429 76.429 0 0 0-8.027-9.52c-22.786-22.986-62.64-30.213-91.253-12.493-34.547 21.36-29.933 53.667-16.533 86.733 10.4 25.654 25.093 52.28 21.48 80.854-4.507 35.72-44.974 59.826-48.2 96.186-3.094 35.28 35.626 49.574 64.853 48.787 42.133-1.16 67.32-32.973 77.773-70.427 18.747-67.106 44.72-157.413-.093-220.12"
				/>
				<path
					fill="#9f1f1e"
					d="M1775.347 1063.493c18.64-34.133 66.506-43.946 98.693-23.053 34.88 22.613 24.2 63.267 13.88 96.467-12.413 39.8-10.693 82.586 4.64 121.293 10.747 27.147 30.32 66.933-2.627 88.013-31.48 20.147-64.706-6.426-83.2-30.68-26.586-34.84-39.693-79.853-45.226-122.8-5.334-41.32-6.747-91.6 13.84-129.24"
				/>
				<path
					fill="#b52423"
					d="M1770.053 1063.493c18.654-34.133 66.494-43.946 98.694-23.053 34.866 22.613 24.186 63.267 13.866 96.467-12.413 39.8-10.666 82.586 4.654 121.293 10.746 27.147 30.306 66.933-2.627 88.013-31.493 20.147-64.72-6.426-83.2-30.68-26.587-34.84-39.693-79.853-45.227-122.8-5.333-41.32-6.746-91.6 13.84-129.24"
				/>
				<path
					fill="#f9a72b"
					d="M2024.133 1114.96c3.654 5.093-2.866 16.027-14.56 24.427-11.693 8.413-24.146 11.093-27.8 6-3.653-5.094 2.867-16.027 14.56-24.44 11.694-8.387 24.147-11.08 27.8-5.987M2046.733 1198.84c-.786 6.227-13.013 9.813-27.306 8.013-14.28-1.8-25.227-8.293-24.454-14.506.787-6.227 13-9.814 27.294-8.014 14.293 1.8 25.253 8.294 24.466 14.507M2010.333 1278.76c-4.253 4.587-16.28.4-26.866-9.36-10.56-9.787-15.707-21.44-11.454-26.04 4.254-4.6 16.294-.413 26.854 9.36 10.586 9.773 15.72 21.427 11.466 26.04M1837.187 1120.36c-3.64 5.08 2.88 16.027 14.586 24.427 11.707 8.4 24.147 11.08 27.787 6 3.667-5.094-2.84-16.04-14.56-24.44-11.693-8.4-24.147-11.08-27.813-5.987M1814.613 1204.24c.774 6.213 12.987 9.8 27.294 8 14.293-1.8 25.24-8.28 24.44-14.507-.747-6.226-12.974-9.8-27.28-8.013-14.294 1.8-25.24 8.293-24.454 14.52M1851.013 1284.147c4.254 4.6 16.28.413 26.84-9.374 10.587-9.76 15.707-21.426 11.467-26.026-4.253-4.6-16.267-.414-26.853 9.373-10.587 9.773-15.707 21.427-11.454 26.027"
				/>
			</g>
			<g id="tomato-d">
				<path
					fill="#b52423"
					d="M1111.755 1130.787c-130.208 41.573-274.136-44.92-321.468-193.174-47.344-148.253 19.826-302.146 150.036-343.72 130.196-41.56 274.109 44.92 321.44 193.174 47.344 148.253-19.812 302.146-150.008 343.72"
				/>
				<path
					fill="#e82e20"
					d="M1288.645 778.48c47.342 148.253-19.828 302.173-150.022 343.733-22.943 7.334-46.306 10.694-69.495 10.4-108.433-1.213-212.97-81.466-251.959-203.6-47.332-148.226 19.8-302.133 150.022-343.706 86.969-27.76 180.033 1.613 246.358 68.346 32.987 33.16 59.363 75.574 75.096 124.827"
				/>
				<path
					fill="#f46f72"
					d="M1131.555 1100.12c-119.49 38.147-251.582-41.227-295.016-177.28-43.432-136.067 18.216-277.293 137.706-315.44 119.49-38.147 251.57 41.213 295.015 177.28 43.445 136.053-18.228 277.293-137.705 315.44"
				/>
				<path
					fill="#ee504c"
					d="M1135.128 1067.173c-105.497 33.68-222.09-36.386-260.443-156.506-38.353-120.12 16.059-244.8 121.556-278.48 105.484-33.68 222.09 36.386 260.443 156.52 38.34 120.12-16.072 244.786-121.556 278.466"
				/>
				<path
					fill="#9f1f1e"
					d="M1178.627 692.04a76.566 76.566 0 0 0-10.538-6.64c-28.698-14.96-68.872-9.72-90.737 15.853-26.388 30.867-12.201 60.227 10.627 87.64 17.709 21.28 39.809 42.187 45.07 70.507 6.575 35.387-24.672 70.667-16.669 106.293 7.77 34.547 48.995 36.4 76.616 26.747 39.77-13.92 54.113-51.893 52.684-90.747-2.573-69.626-5.29-163.56-67.053-209.653"
				/>
				<path
					fill="#b52423"
					d="M1170.83 694.52a76.906 76.906 0 0 0-10.523-6.627c-28.7-14.96-68.872-9.72-90.751 15.854-26.4 30.866-12.199 60.213 10.64 87.64 17.697 21.28 39.796 42.186 45.045 70.506 6.587 35.387-24.646 70.667-16.644 106.28 7.758 34.56 48.994 36.4 76.603 26.747 39.77-13.907 54.112-51.88 52.659-90.747-2.559-69.613-5.263-163.546-67.028-209.653"
				/>
				<path
					fill="#9f1f1e"
					d="M881.247 788.493c7.365-38.186 49.966-62.08 86.996-51.986 40.093 10.946 42.289 52.906 42.549 87.68.299 41.693 14.955 81.933 41.341 114.133 18.49 22.587 49.216 54.547 24.244 84.64-23.88 28.787-63.572 13.56-88.581-3.92-35.936-25.093-62.103-63.987-80.423-103.213-17.656-37.747-34.286-85.214-26.126-127.334"
				/>
				<path
					fill="#b52423"
					d="M876.193 790.093c7.391-38.173 49.982-62.066 87.007-51.96 40.083 10.934 42.292 52.894 42.539 87.667.297 41.693 14.966 81.933 41.328 114.133 18.501 22.587 49.24 54.547 24.269 84.64-23.867 28.774-63.596 13.56-88.593-3.92-35.912-25.106-62.079-64-80.423-103.226-17.63-37.734-34.273-85.2-26.127-127.334"
				/>
				<path
					fill="#f9a72b"
					d="M1133.893 761.853c5.028 3.734 2.144 16.134-6.429 27.707-8.603 11.56-19.647 17.893-24.687 14.16-5.014-3.733-2.144-16.133 6.458-27.707 8.588-11.546 19.63-17.893 24.658-14.16M1180.939 834.893c1.144 6.16-9.419 13.294-23.58 15.934-14.15 2.626-26.556-.24-27.714-6.387-1.156-6.16 9.42-13.293 23.568-15.933 14.162-2.64 26.583.213 27.726 6.386M1170.557 922.08c-2.649 5.68-15.357 5.347-28.414-.733-13.058-6.094-21.488-15.654-18.851-21.334 2.65-5.666 15.383-5.333 28.44.747 13.057 6.107 21.49 15.64 18.825 21.32M957.445 823.84c-1.909 5.973 7.628 14.413 21.307 18.853 13.71 4.427 26.388 3.214 28.324-2.746 1.937-5.974-7.612-14.4-21.321-18.854-13.706-4.426-26.36-3.213-28.31 2.747M961.435 910.627c2.638 5.68 15.382 5.386 28.44-.68 13.084-6.054 21.542-15.574 18.89-21.254-2.625-5.706-15.356-5.4-28.426.667-13.071 6.053-21.53 15.573-18.904 21.267M1020.419 975.68c5.47 3.08 15.644-4.56 22.75-17.093 7.107-12.52 8.446-25.187 3-28.28-5.456-3.094-15.654 4.546-22.736 17.093-7.12 12.52-8.457 25.187-3.014 28.28"
				/>
			</g>

			<g id="lettuce-a">
				<path
					fill="#97cb44"
					d="M1803.787 1297.773c50.973 107.067-37.48 120.12-89.96 193.52-43.947 61.534.213 138.52.466 206.854.147 25.546-5.693 45.386-15.706 61.32-90.04 14.826-185.494 22.8-284.374 22.8-269.536 0-513.868-59.2-691.94-155.134 5.639-53.56 11.472-103.773 9.342-159.32-2.626-66.133 21.346-118.186 28.426-181.506 8.368-75.254-57.27-105.747-89.01-164.667-37.755-69.84 23.972-88.733 49.37-145.933 16.708-37.494.91-79.254-.129-118.387-.48-18.96 2.404-37.227 14.084-54.187 29.675-43.12 88.165-44.16 134.6-35.026 14.213 2.826 24.385 6.733 31.935 11.746 25.53 17.027 21.489 46.08 44.77 82.267 53.97 83.92 160.144 75.613 238.5 32.76 8.924-4.88 17.5-10.64 25.894-16.827 63.169-46.973 113.228-120.8 197.158-59.88 45.04 32.68 44.707 81.454 52.6 125.88 4.88 27.534 12.974 53.427 36.947 72.934 82.28 66.946 144.827-7.907 216.867-33.387 67.44-23.827 136.533 52.6 101.773 115.853-16.68 30.294-54.6 46.294-59.893 83.227-5.96 41.493 31.746 80.427 48.28 115.093"
				/>
			</g>

			<g id="tomato-c" class="salad-mid">
				<path
					fill="#b52423"
					d="M899.93 1703.08c-6.589-2.12-13.122-4.387-19.646-6.72-20.89-7.36-41.263-15.12-61.115-23.427-23.23-9.546-45.602-19.773-67.105-30.413-10.148-5.027-20.035-10.173-29.79-15.387a847.239 847.239 0 0 1-11.758-6.453 784.063 784.063 0 0 1-17.23-9.827c-.818-.466-1.583-.96-2.338-1.44-2.807-1.653-5.481-3.293-8.224-4.946-3.585-2.054-7.145-4.254-10.653-6.454-44.291-27.666-83.5-57.813-116.878-90.093-7.42-7.08-14.5-14.36-21.282-21.707a468.72 468.72 0 0 1-19.307-21.973c-3.09-3.707-6.12-7.48-9.055-11.267-17.306-22.32-32.012-45.386-43.744-69.08-5.433-10.92-10.24-21.906-14.37-33.093-4.599-47.867-.754-94.907 10.653-138.72 21.839-84.12 71.612-156.653 143.863-201.013l11.396 26.44 16.552 38.466v.067l1.104 2.533.609 1.387 3.585 8.373L878.088 1652.4l16.553 38.533 5.288 12.147"
				/>
				<path
					fill="#e82e20"
					d="M899.93 1703.08c-6.589-2.12-13.122-4.387-19.646-6.72-20.89-7.36-41.263-15.12-61.115-23.427-23.23-9.546-45.602-19.773-67.105-30.413-10.148-5.027-20.035-10.173-29.79-15.387a847.239 847.239 0 0 1-11.758-6.453 784.063 784.063 0 0 1-17.23-9.827c-.818-.466-1.583-.96-2.338-1.44-2.807-1.653-5.481-3.293-8.224-4.946-3.585-2.054-7.145-4.254-10.653-6.454-44.291-27.666-83.5-57.813-116.878-90.093-7.42-7.08-14.5-14.36-21.282-21.707a468.72 468.72 0 0 1-19.307-21.973c-3.09-3.707-6.12-7.48-9.055-11.267-17.306-22.32-32.012-45.386-43.744-69.08-5.433-10.92-10.24-21.906-14.37-33.093-3.354-9-6.315-18.067-8.784-27.2a292.238 292.238 0 0 1-8.028-37.56c-2.274-14.627-3.378-29.4-3.378-44.36 0-13.253.908-26.44 2.623-39.427 28.83-85.693 87.893-156.84 170.85-194.066l1.233 2.88 11.396 26.44 16.552 38.466v.067l1.104 2.533.609 1.387 3.585 8.373L878.088 1652.4l16.553 38.533 5.288 12.147"
				/>
				<path
					fill="#f46f72"
					d="M894.641 1690.933c-4.742 1.92-9.55 3.774-14.357 5.427-20.89-7.36-41.263-15.12-61.115-23.427-23.23-9.546-45.602-19.773-67.105-30.413-10.148-5.027-20.035-10.173-29.79-15.387a847.239 847.239 0 0 1-11.758-6.453 784.063 784.063 0 0 1-17.23-9.827c-.818-.466-1.583-.96-2.338-1.44-2.807-1.653-5.481-3.293-8.224-4.946-3.585-2.054-7.145-4.254-10.653-6.454-44.291-27.666-83.5-57.813-116.878-90.093-7.42-7.08-14.5-14.36-21.282-21.707a468.72 468.72 0 0 1-19.307-21.973c-3.09-3.707-6.12-7.48-9.055-11.267-17.306-22.32-32.012-45.386-43.744-69.08-5.433-10.92-10.24-21.906-14.37-33.093-3.354-9-6.315-18.067-8.784-27.2.56-38.867 7.212-76.56 19.437-111.52 26.777-77.053 80.33-140.853 155.259-174.573l16.552 38.466v.067l1.104 2.533.609 1.387 2.547 5.893 1.038 2.48 10.85 25.134L878.088 1652.4l16.553 38.533"
				/>
				<path
					fill="#ee504c"
					d="M878.088 1652.4c-4.116 2.067-8.315 3.987-12.563 5.84a244.634 244.634 0 0 1-46.356 14.693c-23.23-9.546-45.602-19.773-67.105-30.413-10.148-5.027-20.035-10.173-29.79-15.387a847.239 847.239 0 0 1-11.758-6.453 784.063 784.063 0 0 1-17.23-9.827c-.818-.466-1.583-.96-2.338-1.44-2.807-1.653-5.481-3.293-8.224-4.946-3.585-2.054-7.145-4.254-10.653-6.454-44.291-27.666-83.5-57.813-116.878-90.093-7.42-7.08-14.5-14.36-21.282-21.707a468.72 468.72 0 0 1-19.307-21.973c-3.09-3.707-6.12-7.48-9.055-11.267-17.306-22.32-32.012-45.386-43.744-69.08-16.709-129.786 42.77-254.293 155.256-302.706 4.25-1.854 8.524-3.56 12.838-5.147l1.104 2.533.609 1.387 2.547 5.893 11.888 27.614L878.088 1652.4"
				/>
				<path
					fill="#9f1f1e"
					d="M745.204 1574.52c-9.003 12.853-21.217 22.813-35.013 29.68-5.432 2.747-11.071 4.933-16.904 6.653-.819-.466-1.584-.96-2.339-1.44-2.807-1.653-5.481-3.293-8.224-4.946-3.585-2.054-7.145-4.254-10.653-6.454-44.291-27.666-83.5-57.813-116.878-90.093-7.42-7.08-14.5-14.36-21.282-21.707a468.72 468.72 0 0 1-19.307-21.973c-14.213-47.32-20.877-98-26.776-141.667-7.145-53.026 7.419-106.92 60.024-131.306 2.585-1.16 5.275-2.32 8.015-3.36 13.552-5.16 29.065-8.32 43.889-7.974 24.801.48 47.72 10.787 56.595 37.707 8.43 25.48 1.428 52.4-4.756 79.187a607.14 607.14 0 0 0-3.832 17.64c-3.3 17.306-4.742 34.4 0 50.96 10.978 38.04 44.004 63.72 71.144 90.506 34.885 34.48 58.31 72.787 26.297 118.587"
				/>
				<path
					fill="#b52423"
					d="M755.508 1570.067c-11.201 16-27.323 27.466-45.317 34.133-6.186 2.333-12.642 4.12-19.243 5.213-2.807-1.653-5.481-3.293-8.224-4.946-3.585-2.054-7.145-4.254-10.653-6.454-44.291-27.666-83.5-57.813-116.878-90.093-7.42-7.08-14.5-14.36-21.282-21.707-20.684-54.386-28.726-116.186-35.716-168.106-7.002-52.267 6.925-105.347 57.672-130.2.754-.414 1.534-.76 2.273-1.107 12.773-5.907 27.884-10.16 42.993-11.12 28.075-1.92 55.555 7.347 65.52 37.493 15.72 47.667-22.321 100.2-8.588 147.787 10.979 38.053 44.096 63.733 71.211 90.507 34.884 34.48 58.232 72.8 26.232 118.6"
				/>
				<path
					fill="#f9a72b"
					d="M659.65 1499.107c-7.393-4.454-5.106-21.827 5.105-38.814 10.214-16.96 24.48-27.133 31.884-22.706 7.38 4.453 5.093 21.826-5.118 38.813-10.201 17-24.492 27.16-31.87 22.707M585.45 1405.387c-2.403-8.28 11.097-19.48 30.131-24.987 19.02-5.48 36.416-3.253 38.807 5.053 2.404 8.267-11.083 19.44-30.13 24.96-19.046 5.52-36.417 3.267-38.807-5.026M587.959 1284.587c2.872-8.134 20.346-9.387 39.054-2.787 18.671 6.6 31.494 18.547 28.635 26.667-2.884 8.133-20.345 9.373-39.041 2.773-18.695-6.587-31.52-18.52-28.648-26.653"
				/>
				<path
					fill="#eb402a"
					d="M438.65 1323.6a292.238 292.238 0 0 1-8.027-37.56c-2.274-14.627-3.378-29.4-3.378-44.36 0-13.253.908-26.44 2.623-39.427 28.83-85.693 87.893-156.84 170.85-194.066l1.233 2.88 11.396 26.44c-74.928 33.72-128.482 97.52-155.259 174.573-12.225 34.96-18.877 72.653-19.437 111.52"
				/>
				<path
					fill="#f57c7d"
					d="M461.805 1383.893c-5.433-10.92-10.24-21.906-14.37-33.093-3.354-9-6.315-18.067-8.784-27.2.56-38.867 7.212-76.56 19.437-111.52 26.777-77.053 80.33-140.853 155.259-174.573l16.552 38.466v.067a235.046 235.046 0 0 0-12.838 5.147c-112.486 48.413-171.965 172.92-155.256 302.706"
				/>
				<path
					fill="#f06057"
					d="M514.604 1464.24c-3.09-3.707-6.12-7.48-9.055-11.267-17.306-22.32-32.012-45.386-43.744-69.08-16.709-129.786 42.77-254.293 155.256-302.706 4.25-1.854 8.524-3.56 12.838-5.147l1.104 2.533.609 1.387 2.547 5.893 1.038 2.48c-13.393 28.507-24.658 57.814-34.064 87.347-15.109.96-30.22 5.213-42.993 11.12-.739.347-1.519.693-2.273 1.107-2.74 1.04-5.43 2.2-8.015 3.36-52.605 24.386-67.17 78.28-60.024 131.306 5.899 43.667 12.563 94.347 26.776 141.667"
				/>
				<path
					fill="#a62e26"
					d="M533.91 1486.213a468.72 468.72 0 0 1-19.306-21.973c-14.213-47.32-20.877-98-26.776-141.667-7.145-53.026 7.419-106.92 60.024-131.306 2.585-1.16 5.275-2.32 8.015-3.36-50.747 24.853-64.674 77.933-57.672 130.2 6.99 51.92 15.032 113.72 35.716 168.106"
				/>
				<path
					fill="#ba342c"
					d="M555.193 1507.92c-7.42-7.08-14.5-14.36-21.282-21.707-20.684-54.386-28.726-116.186-35.716-168.106-7.002-52.267 6.925-105.347 57.672-130.2.754-.414 1.534-.76 2.273-1.107 12.773-5.907 27.884-10.16 42.993-11.12-.481 1.44-.974 2.88-1.377 4.253-36.6 116.747-45.188 237.2-44.563 327.987"
				/>
				<path
					fill="#e16669"
					d="m953.833 1700.2-27.062 11.6a993.812 993.812 0 0 1-26.842-8.72l-5.289-12.147-16.552-38.533-242.89-564.067-5.3-12.293v-.067l-16.551-38.466-11.396-26.44-1.234-2.88 46.564-20.04 29.182 67.84 248.177 576.36 29.193 67.853"
				/>
				<path fill="#e64d49" d="m629.924 1076 46.539-20.027 248.152 576.374-46.539 20.026L629.924 1076" />
			</g>
			<g id="tomato-b" class="salad-mid">
				<path
					fill="#b52423"
					d="M1234.364 1350.053 867.305 996.16c-65.505 91.147-47.409 227.907 46.812 318.747 94.192 90.826 231.534 103.933 320.247 35.146"
				/>
				<path
					fill="#e82e20"
					d="M1010.596 1401.16c81.164 24.533 167.42 8.48 225.221-49.68L865.824 994.707c-84.228 90.04-70.937 240.986 30.441 338.733 33.948 32.733 73.498 55.373 114.331 67.72"
				/>
				<path
					fill="#f46f72"
					d="m1220.617 1336.8-339.552-327.4c-77.122 82.64-64.884 221.027 28.076 310.667 92.959 89.626 231.678 96.8 311.476 16.733"
				/>
				<path
					fill="#ee504c"
					d="M1194.412 1324.28c2.13-2.213 4.184-4.48 6.172-6.8l-299.499-288.76a144.32 144.32 0 0 0-6.549 6.427c-70.132 72.733-59.841 196.4 22.972 276.253 82.8 79.84 206.772 85.613 276.904 12.88"
				/>
				<path
					fill="#9f1f1e"
					d="M1022.03 1355.213a71.07 71.07 0 0 0 11.329.76c29.532-.413 59.518-22.013 66.002-52.026 7.835-36.2-16.293-53.627-46.473-65.76-23.439-9.44-50.243-16.654-66.73-37.107-20.593-25.573-10.797-67.44-32.662-92.573-21.19-24.374-55.1-8-73.095 11.706-25.906 28.374-20.982 65.094-3 95.667 32.207 54.8 75.068 129.08 144.63 139.333"
				/>
				<path
					fill="#b52423"
					d="M1027.213 1349.853c3.73.547 7.511.814 11.331.734 29.519-.414 59.517-22 66.013-52.014 7.822-36.213-16.317-53.64-46.5-65.786-23.437-9.427-50.226-16.627-66.714-37.08-20.619-25.574-10.796-67.414-32.65-92.574-21.204-24.373-55.125-8-73.081 11.694-25.932 28.413-21.01 65.106-3.015 95.693 32.208 54.773 75.07 129.053 144.616 139.333"
				/>
				<path
					fill="#f9a72b"
					d="M1027.721 1279.773c-5.664-.813-8.705-12.04-6.833-25.026 1.896-13 8.016-22.867 13.68-22.067 5.65.827 8.705 12.04 6.82 25.04-1.883 13-8.016 22.893-13.667 22.053M958.316 1241.493c-3.585-4.44 1.807-14.746 12.03-23 10.227-8.24 21.425-11.32 25.023-6.866 3.6 4.453-1.804 14.733-12.03 22.986-10.224 8.267-21.436 11.334-25.023 6.88M928.888 1167c-.324-5.72 10.044-10.973 23.153-11.72 13.11-.76 24.023 3.267 24.36 8.947.326 5.733-10.041 10.946-23.164 11.72-13.109.773-24.01-3.24-24.349-8.947"
				/>
				<path
					fill="#eb402a"
					d="M1010.596 1401.16c-40.833-12.347-80.383-34.987-114.33-67.72-56.63-54.6-85.774-125.8-85.787-193.707-.012-53.666 18.166-105.28 55.345-145.026l15.233 14.693c-77.106 82.653-64.87 221.027 28.084 310.667 26.292 25.346 56.259 44.106 87.504 56.16 8.459 15.973 13.951 24.933 13.951 24.933"
				/>
				<path
					fill="#f57c7d"
					d="M996.645 1376.227c-31.245-12.054-61.212-30.814-87.504-56.16-92.954-89.64-105.19-228.014-28.084-310.667l20.026 19.32a144.265 144.265 0 0 0-6.547 6.427c-70.132 72.733-59.841 196.4 22.972 276.253 21.104 20.347 44.89 35.893 69.77 46.547a798.342 798.342 0 0 0 9.367 18.28"
				/>
				<path
					fill="#f06057"
					d="M987.277 1357.947c-24.88-10.654-48.665-26.2-69.769-46.547-82.813-79.853-93.104-203.52-22.972-276.253 2.13-2.227 4.301-4.36 6.547-6.427l6.369 6.133c-.881 20.867-.256 41.667 1.548 62.174-8.928 4.466-17.127 10.933-23.388 17.8-.32.36-.636.706-.947 1.066a79.675 79.675 0 0 0-4.264 4.32c-25.906 28.374-20.982 65.094-3 95.667 24.822 42.24 55.967 96.04 100.791 123.187a873.335 873.335 0 0 0 9.085 18.88"
				/>
				<path
					fill="#a62e26"
					d="M978.192 1339.067c-44.824-27.147-75.97-80.947-100.79-123.187-17.983-30.573-22.907-67.293 3-95.667a79.675 79.675 0 0 1 4.263-4.32c-24.864 28.254-19.84 64.427-2.068 94.627 22.732 38.653 50.771 87.04 89.755 115.76a873.148 873.148 0 0 0 5.84 12.787"
				/>
				<path
					fill="#ba342c"
					d="M972.352 1326.28c-38.984-28.72-67.023-77.107-89.755-115.76-17.772-30.2-22.796-66.373 2.068-94.627.311-.36.627-.706.947-1.066 6.261-6.867 14.46-13.334 23.388-17.8 7.84 89.106 37.935 172.44 63.352 229.253"
				/>
				<path fill="#e16669" d="m865.824 994.707 23.31-24.187 370.018 356.773-23.335 24.187-369.993-356.773" />
				<path fill="#e64d49" d="m901.06 1028.693 23.333-24.173 299.511 288.787-23.32 24.173-299.524-288.787" />
			</g>
			<g id="onion-c" class="salad-mid">
				<path
					fill="#993486"
					d="M1646.48 1422.04c-72.333 47.133-169.547 26.187-217.08-46.733-47.56-72.947-27.48-170.307 44.893-217.48 72.334-47.12 169.52-26.214 217.094 46.733 47.52 72.987 27.44 170.32-44.907 217.48zm-125.333 41.293c44.986 6.774 92.453-2.266 133.4-28.946 40.906-26.654 68.293-66.36 80.266-110.187 13.32-48.56 7.76-102.2-19.146-148.893-1.827-3.147-3.72-6.28-5.734-9.347-58.666-90.013-178.666-115.853-267.946-57.68-89.294 58.213-114.092 178.387-55.374 268.427 1.987 3.04 4 5.986 6.134 8.88 31.813 43.52 78.6 70.28 128.4 77.746"
				/>
				<path
					fill="#9a1477"
					d="M1429.4 1375.307c-47.56-72.947-27.48-170.307 44.893-217.48 72.334-47.12 169.52-26.214 217.094 46.733 47.52 72.987 27.44 170.32-44.907 217.48-72.333 47.133-169.547 26.187-217.08-46.733zm141.493 108.546c33.054-1.52 66.094-11.546 95.72-30.88 89.294-58.213 114.107-178.413 55.44-268.426a198.764 198.764 0 0 0-6.386-9.24 196.446 196.446 0 0 0-29.867-32.28c-63.747-55.014-158.147-64.067-231.707-16.134-86.093 56.134-112.24 169.92-61.346 258.694 1.853 3.293 3.853 6.52 5.92 9.706 39.24 60.134 105.786 91.627 172.226 88.56"
				/>
				<path
					fill="#bb7fb1"
					d="M1429.4 1375.307c-47.56-72.947-27.48-170.307 44.893-217.48 72.334-47.12 169.52-26.214 217.094 46.733 47.52 72.987 27.44 170.32-44.907 217.48-72.333 47.133-169.547 26.187-217.08-46.733zm91.747 88.026c45.413 10.667 94.8 3.587 136.746-23.786 41.92-27.347 68.36-69.547 76.92-115.347 8.28-43.64.24-90.6-26.08-131-53.853-82.587-163.946-106.293-245.893-52.907-81.947 53.4-104.68 163.72-50.84 246.347 26.28 40.307 65.92 66.547 109.147 76.693"
				/>
			</g>

			<g id="tomato-a" class="salad-front">
				<path
					fill="#b52423"
					d="M1659.427 1601.253c0 65.027-23.267 124.84-62.134 171.747-11.186 1.173-22.533 2.187-33.853 3.093-13.88 1.16-27.813 2.187-41.813 3.014-35.307 2.053-71.147 3.16-107.414 3.16-62.64 0-123.893-3.24-183.281-9.414-14.083-1.373-27.959-2.946-41.756-4.8-10.783-1.306-21.501-2.746-32.064-4.4-34.481-45.386-54.803-101.56-54.803-162.4 0-5.226.131-10.386.468-15.533 4.262-75.187 39.627-142.147 93.74-188.92 49.098-42.493 113.656-68.253 184.336-68.253 70.654 0 135.28 25.76 184.387 68.253 54.027 46.707 89.4 113.587 93.733 188.653.334 5.227.454 10.507.454 15.8"
				/>
				<path
					fill="#e82e20"
					d="M1659.427 1570.133c0 5.147-.12 10.24-.454 15.32-1.173 21.147-4.746 41.547-10.586 61.12-15.174 50.947-45.054 95.734-84.947 129.52-13.88 1.16-27.813 2.187-41.813 3.014-35.307 2.053-71.147 3.16-107.414 3.16-62.64 0-123.893-3.24-183.281-9.414-14.083-1.373-27.959-2.946-41.756-4.8-49.941-46.36-82.267-110.64-86.399-182.333-.337-5.147-.468-10.373-.468-15.587 0-100.6 55.62-188.44 138.446-235.68 41.133-23.546 88.985-37.013 140.098-37.013 153.88 0 278.574 122.107 278.574 272.693"
				/>
				<path
					fill="#f46f72"
					d="M1636.507 1570.133c0 87.36-45.667 164.2-114.88 208.974-35.307 2.053-71.147 3.16-107.414 3.16-62.64 0-123.893-3.24-183.281-9.414-64.076-45.466-105.69-119.346-105.69-202.72 0-67.373 27.05-128.346 71.275-173.333 46.499-47.453 111.876-76.907 184.336-76.907 72.494 0 137.867 29.454 184.387 76.907 44.147 44.987 71.267 105.96 71.267 173.333"
				/>
				<path
					fill="#ee504c"
					d="M1606.56 1555.373c0 122.027-101.04 220.96-225.68 220.96-124.664 0-225.719-98.933-225.719-220.96 0-122.04 101.055-220.96 225.719-220.96 124.64 0 225.68 98.92 225.68 220.96"
				/>
				<path
					fill="#9f1f1e"
					d="M1266.376 1383.96a77.912 77.912 0 0 0-9.419 8.827c-22.71 25.12-29.857 69.04-12.356 100.586 21.126 38.054 53.06 32.974 85.723 18.2 25.383-11.44 51.703-27.626 79.956-23.653 35.307 4.947 59.12 49.573 95.08 53.093 34.88 3.427 49.027-39.24 48.227-71.453-1.147-46.413-32.574-74.2-69.614-85.72-66.333-20.64-155.624-49.28-217.597.12"
				/>
				<path
					fill="#b52423"
					d="M1266.376 1392.96a78.031 78.031 0 0 0-9.419 8.84c-22.71 25.12-29.857 69.053-12.356 100.587 21.126 38.053 53.06 32.986 85.723 18.213 25.383-11.453 51.703-27.64 79.956-23.68 35.307 4.973 59.12 49.587 95.08 53.12 34.88 3.413 49.027-39.253 48.227-71.467-1.147-46.4-32.574-74.186-69.614-85.706-66.333-20.64-155.624-49.28-217.597.093"
				/>
				<path
					fill="#9f1f1e"
					d="M1267.792 1728.493c-33.753-20.546-43.445-73.28-22.788-108.76 22.347-38.426 62.545-26.68 95.37-15.28 39.333 13.667 81.64 11.747 119.906-5.133 26.84-11.853 66.16-33.4 86.987 2.907 19.933 34.706-6.334 71.293-30.32 91.693-34.454 29.293-78.934 43.733-121.387 49.84-40.853 5.853-90.557 7.413-127.768-15.267"
				/>
				<path
					fill="#b52423"
					d="M1267.792 1734.32c-33.753-20.547-43.445-73.253-22.788-108.733 22.347-38.454 62.545-26.68 95.37-15.294 39.333 13.654 81.64 11.747 119.906-5.133 26.84-11.84 66.16-33.413 86.987 2.893 19.933 34.72-6.334 71.307-30.32 91.694-34.454 29.306-78.934 43.733-121.387 49.84-40.853 5.866-90.557 7.426-127.768-15.267"
				/>
				<path
					fill="#f9a72b"
					d="M1318.67 1454.32c5.027-4.027 15.85 3.16 24.157 16.053 8.293 12.894 10.946 26.6 5.92 30.64-5.027 4.014-15.851-3.16-24.166-16.053-8.302-12.907-10.952-26.613-5.912-30.64M1401.6 1429.4c6.147.88 9.693 14.347 7.893 30.093-1.746 15.747-8.173 27.814-14.32 26.974-6.146-.88-9.706-14.334-7.933-30.094 1.787-15.746 8.213-27.826 14.36-26.973M1480.587 1469.533c4.56 4.68.426 17.934-9.24 29.587-9.667 11.667-21.187 17.32-25.747 12.64-4.56-4.693-.413-17.947 9.253-29.6 9.654-11.653 21.174-17.32 25.734-12.627M1323.997 1660.333c5.028 4.014 15.87-3.16 24.15-16.066 8.306-12.88 10.973-26.6 5.946-30.627-5.04-4.027-15.853 3.147-24.158 16.04-8.328 12.92-10.954 26.613-5.938 30.653M1406.933 1685.227c6.12-.854 9.68-14.334 7.907-30.08-1.787-15.747-8.187-27.814-14.36-26.96-6.147.866-9.693 14.333-7.893 30.093 1.76 15.747 8.173 27.813 14.346 26.947M1485.92 1645.12c4.547-4.693.4-17.947-9.267-29.6-9.653-11.653-21.173-17.32-25.72-12.64-4.56 4.707-.413 17.947 9.267 29.6 9.653 11.667 21.173 17.32 25.72 12.64"
				/>
			</g>
			<g id="onion-b" class="salad-front">
				<path
					fill="#993486"
					d="M2097.84 1613.68c-27.547-37.293-68.253-64.973-116.947-75.2-48.68-10.307-97.026-1.373-137.2 21.493-44.586 25.414-79.24 68.054-93.466 121.067a200.325 200.325 0 0 0-2.614 10.84c-4.253 20.067-5.293 40.053-3.493 59.413 2.547-.48 5.08-1.026 7.627-1.506a592.17 592.17 0 0 0 15.84-3.294c6.946-1.386 13.88-2.893 20.76-4.4-4.134-20.746-4.187-42.64.4-64.626 12.64-59.88 56.8-104.934 111.266-121.134 24.494-7.28 51.08-8.786 77.814-3.16 49.013 10.374 87.933 42.374 108.96 84.12a846.546 846.546 0 0 0 18.76-9.813c.413-.213.8-.413 1.173-.627a168.61 168.61 0 0 0-8.88-13.173"
				/>
				<path
					fill="#9a1477"
					d="M2076.773 1563.053c-24.933-22.653-55.973-39.266-91.213-46.693-106.227-22.373-210.747 46.36-233.267 153.413-.84 3.787-1.52 7.574-2.066 11.267a204.844 204.844 0 0 0-1.787 44.773 197.07 197.07 0 0 0 3.307 23.974 592.17 592.17 0 0 0 15.84-3.294c6.946-1.386 13.88-2.893 20.76-4.4-4.134-20.746-4.187-42.64.4-64.626 12.64-59.88 56.8-104.934 111.266-121.134 24.494-7.28 51.08-8.786 77.814-3.16 49.013 10.374 87.933 42.374 108.96 84.12a846.546 846.546 0 0 0 18.76-9.813c.413-.213.8-.413 1.173-.627 1.147-.613 2.32-1.24 3.427-1.84 3.226-1.8 6.44-3.506 9.6-5.36a198.703 198.703 0 0 0-42.974-56.6"
				/>
				<path
					fill="#bb7fb1"
					d="M2097.84 1613.68c-25.053-40.387-65.707-70.88-115.72-81.387-49.853-10.506-99.28.894-138.427 27.68-37.426 25.48-65.453 65.094-75.626 113.174-5.2 25-5.134 49.853-.48 73.346 6.946-1.386 13.88-2.893 20.76-4.4-4.134-20.746-4.187-42.64.4-64.626 12.64-59.88 56.8-104.934 111.266-121.134 24.494-7.28 51.08-8.786 77.814-3.16 49.013 10.374 87.933 42.374 108.96 84.12a846.546 846.546 0 0 0 18.76-9.813c-2.334-4.733-4.96-9.333-7.707-13.8"
				/>
			</g>
			<g id="onion-a" class="salad-front">
				<path
					fill="#993486"
					d="M1150.16 1380.667a261.67 261.67 0 0 0-7.808-12.774c-80.213-123-244.152-158.28-366.175-78.84-103.625 67.574-143.733 196.347-104.106 308.96 3.508 2.2 7.068 4.4 10.653 6.454a669.147 669.147 0 0 0 27.792 16.213c3.923 2.2 7.833 4.333 11.757 6.453 9.756 5.214 19.644 10.374 29.791 15.387-55.892-98.213-26.908-223.68 68.275-285.747 98.818-64.413 231.626-35.853 296.652 63.854 44.785 68.746 45.602 153.36 9.356 220.386-16.23 30.134-40.043 56.787-70.746 76.774-11.952 7.76-24.372 14.213-37.09 19.226 10.588 2.534 21.306 5.014 32.076 7.347a286.54 286.54 0 0 0 16.085-9.68c55.88-36.4 93.323-90.72 109.655-150.533 18.201-66.414 10.589-139.68-26.167-203.48"
				/>
				<path
					fill="#9a1477"
					d="M1158.89 1393.307c-2.818-4.334-5.69-8.52-8.73-12.64-12.147-16.48-25.88-31.24-40.796-44.08-87.139-75.2-216.1-87.56-316.635-22.054-97.857 63.72-139.054 182.12-110.005 289.934a669.147 669.147 0 0 0 27.792 16.213c3.923 2.2 7.833 4.333 11.757 6.453 9.756 5.214 19.644 10.374 29.791 15.387-55.892-98.213-26.908-223.68 68.275-285.747 98.818-64.413 231.626-35.853 296.652 63.854 44.785 68.746 45.602 153.36 9.356 220.386-16.23 30.134-40.043 56.787-70.746 76.774-11.952 7.76-24.372 14.213-37.09 19.226 10.588 2.534 21.306 5.014 32.076 7.347 4.053.893 8.173 1.72 12.225 2.6 10.097 2.067 20.333 4.12 30.559 6.053 113.657-81.8 143.46-240.226 65.52-359.706"
				/>
				<path
					fill="#bb7fb1"
					d="M1140.69 1405.12c-73.551-112.907-224.013-145.24-336.02-72.32-96.417 62.907-132.871 183.493-94.154 287.88 3.923 2.2 7.833 4.333 11.757 6.453 9.756 5.214 19.644 10.374 29.791 15.387-55.892-98.213-26.908-223.68 68.275-285.747 98.818-64.413 231.626-35.853 296.652 63.854 44.785 68.746 45.602 153.36 9.356 220.386-16.23 30.134-40.043 56.787-70.746 76.774-11.952 7.76-24.372 14.213-37.09 19.226 10.588 2.534 21.306 5.014 32.076 7.347 4.053.893 8.173 1.72 12.225 2.6 2.821-1.64 5.64-3.427 8.381-5.213 57.348-37.36 93.466-95.054 105.134-157.6 11.329-59.68.35-123.814-35.638-179.027"
				/>
			</g>
		</svg>